<?xml version="1.0" standalone="no"?>
<!DOCTYPE svg PUBLIC "-//W3C//DTD SVG 1.1//EN" "http://www.w3.org/Graphics/SVG/1.1/DTD/svg11.dtd" >
<svg>
<metadata>
Created by FontForge 20090914 at Wed Aug 25 10:05:16 2021
 By www-data
&#194;&#169; 1992, Tilde Ltd. AG Fonts Collection. Created by Andrejs Grinbergs.
</metadata>
<defs>
<font id="AGLettericaComprPlainMedium" horiz-adv-x="1901" >
  <font-face 
    font-family="AG Letterica Compr-Plain"
    font-weight="400"
    font-stretch="normal"
    units-per-em="4096"
    panose-1="2 11 114 0 0 0 0 0 0 0"
    ascent="3276"
    descent="-820"
    x-height="2343"
    cap-height="2916"
    bbox="-197 -733 4096 3637"
    underline-thickness="20"
    underline-position="-123"
    unicode-range="U+0020-U+2219"
  />
<missing-glyph horiz-adv-x="3072" 
d="M512 0v2560h2048v-2560h-2048zM2494 66v2428h-1916v-2428h1916z" />
    <glyph glyph-name=".notdef" horiz-adv-x="3072" 
d="M512 0v2560h2048v-2560h-2048zM2494 66v2428h-1916v-2428h1916z" />
    <glyph glyph-name="space" unicode=" " horiz-adv-x="950" 
 />
    <glyph glyph-name="exclam" unicode="!" horiz-adv-x="1061" 
d="M848 856h-635v2060h635v-2060zM848 0h-635v688h635v-688z" />
    <glyph glyph-name="quotedbl" unicode="&#x22;" horiz-adv-x="1364" 
d="M811 1806v1110h492v-1110h-492zM61 1806v1110h492v-1110h-492z" />
    <glyph glyph-name="numbersign" unicode="#" 
d="M1708 1217l-12 -398h-299l-94 -819h-349l95 819h-320l-90 -819h-348l94 819h-299l16 398h328l57 483h-294l12 397h327l95 819h348l-94 -819h315l94 819h348l-94 -819h266l-12 -397h-299l-57 -483h266zM1151 1700h-315l-58 -483h320z" />
    <glyph glyph-name="dollar" unicode="$" 
d="M1090 3174l-0.00195312 -200c140.667 -12 265.167 -41.167 373.5 -87.5s194 -115.5 257 -207.5s94.5 -208 94.5 -348v-459h-680v414c0 147.333 -61.667 221 -185 221c-60.667 0 -105.834 -16.5 -135.501 -49.5s-44.5 -90.167 -44.5 -171.5
c0 -95.333 64.667 -202.666 194 -322l382 -339c125.333 -106.667 234.833 -232.834 328.5 -378.501s140.5 -318.167 140.5 -517.5c0 -188.667 -38.167 -339.834 -114.5 -453.501s-168.666 -194.667 -276.999 -243s-219.5 -78.166 -333.5 -89.499v-246h-308v246
c-206 12.667 -372.833 75.334 -500.5 188.001s-191.5 269.667 -191.5 471v533h680v-504c0 -81.333 14.833 -138.5 44.5 -171.5s74.834 -49.5 135.501 -49.5c123.333 0 185 73.667 185 221c0 142.667 -40.167 260 -120.5 352s-209.166 209.667 -386.499 353
s-311.333 281 -402 413s-136 297.333 -136 496c0 222.667 59.833 392.834 179.5 510.5c119.667 117.667 290.5 190.5 512.5 218.5v200h308z" />
    <glyph glyph-name="percent" unicode="%" horiz-adv-x="2580" 
d="M1696 2974h303l-1114 -3031h-307zM1454 520v602c0 346.667 176 520 528 520c352.667 0 529 -173.333 529 -520v-602c0 -346.667 -176.333 -520 -529 -520c-352 -0 -528 173.333 -528 520zM2081 434v774c0 93.333 -33 140 -99 140c-65.333 0 -98 -46.667 -98 -140v-774
c0 -92.667 32.667 -139 98 -139c66 0 99 46.333 99 139zM70 1794v602c0 346.667 176 520 528 520s528 -173.333 528 -520v-602c0 -346.667 -176 -520 -528 -520s-528 173.333 -528 520zM696 1708v774c0 92.667 -32.667 139 -98 139s-98 -46.333 -98 -139v-774
c0 -92.667 32.667 -139 98 -139s98 46.333 98 139z" />
    <glyph glyph-name="ampersand" unicode="&#x26;" horiz-adv-x="2429" 
d="M1356 524l-590 680v-360c11.333 -140 40.166 -247.333 86.499 -322s125.5 -112 237.5 -112c150.667 0 239.334 38 266.001 114zM1016 2507c-76.667 0 -125.167 -24.5 -145.5 -73.5s-30.5 -121.5 -30.5 -217.5c0 -68 14.167 -135.5 42.5 -202.5
s65.833 -119.833 112.5 -158.5c117.333 0 176 125.667 176 377c0 90.667 -9 159.167 -27 205.5s-60.667 69.5 -128 69.5zM1626 1638h680.002v-487c0 -270.667 -46.333 -452.334 -139 -545.001h250v-606h-283c-202.667 0 -332.334 38.333 -389.001 115
c-180 -114.667 -413.667 -172 -701 -172c-162.667 0 -316.334 25.833 -461.001 77.5s-263.667 137.334 -357 257.001s-140 274.167 -140 463.5v209c0 172.667 21.833 312.5 65.5 419.5s128.5 185.833 254.5 236.5c-164 154 -246 360 -246 618c0 290 82.667 487.5 248 592.5
s377.333 157.5 636 157.5c201.333 0 386.166 -40.667 554.499 -122s252.5 -240 252.5 -476v-250c0 -85.333 -27 -166.333 -81 -243s-125.667 -140.334 -215 -191.001s-185.666 -83.667 -288.999 -99c52 -55.333 113.167 -128.666 183.5 -219.999s115.5 -149 135.5 -173h41
v438z" />
    <glyph glyph-name="quotesingle" unicode="'" horiz-adv-x="909" 
d="M209 1806v1110h491v-1110h-491z" />
    <glyph glyph-name="parenleft" unicode="(" horiz-adv-x="1212" 
d="M1151 -254h-627.001c-148.667 228.667 -263.667 480.5 -345 755.5s-122 555.5 -122 841.5c0 146.667 8.83301 289.667 26.5 429s45.167 274.833 82.5 406.5s84.833 262.667 142.5 393s126.834 264.5 207.501 402.5h623c-325.333 -456 -488 -994 -488 -1614
c0 -180 19 -368.167 57 -564.5s94.667 -385.5 170 -567.5s166.333 -342.667 273 -482z" />
    <glyph glyph-name="parenright" unicode=")" horiz-adv-x="1212" 
d="M688 -254l-627 -0.000976562c106.667 139.333 197.667 300 273 482s132 371.167 170 567.5s57 384.5 57 564.5c0 620.667 -162.333 1158.67 -487 1614h622c106.667 -180 194.167 -357.667 262.5 -533s118.166 -352 149.499 -530s47 -367.333 47 -568
c0 -189.333 -18.333 -378.166 -55 -566.499s-90.167 -370 -160.5 -545s-154.166 -336.833 -251.499 -485.5z" />
    <glyph glyph-name="asterisk" unicode="*" 
d="M778 2490v426h340v-426l398 156l114 -328l-422 -139l295 -360l-274 -213l-283 381l-266 -381l-283 209l283 360l-414 119l115 336z" />
    <glyph glyph-name="plus" unicode="+" horiz-adv-x="2458" 
d="M950 1450v762h557v-762h762v-557h-762v-762h-557v762h-762v557h762z" />
    <glyph glyph-name="comma" unicode="," horiz-adv-x="950" 
d="M492 -524h-422l155 1212h652z" />
    <glyph glyph-name="hyphen" unicode="-" horiz-adv-x="1061" 
d="M74 1061v483h909v-483h-909z" />
    <glyph glyph-name="period" unicode="." horiz-adv-x="950" 
d="M791 0h-635v688h635v-688z" />
    <glyph glyph-name="slash" unicode="/" horiz-adv-x="1061" 
d="M733 2974h320l-725 -3031h-320z" />
    <glyph glyph-name="zero" unicode="0" 
d="M1130 606v1704c0 131.333 -61.333 197 -184 197c-120 0 -180 -65.667 -180 -197v-1704c0 -130.667 60 -196 180 -196c122.667 0 184 65.333 184 196zM1810 2122l-0.000976562 -1385c0 -269.333 -75 -469 -225 -599s-361.667 -195 -635 -195
c-270 0 -481.5 65.167 -634.5 195.5s-229.5 329.833 -229.5 598.5v1385c0 214 43.5 384.333 130.5 511s196 215.167 327 265.5s269.167 75.5 414.5 75.5c168.667 0 315.834 -24.667 441.501 -74s225.5 -137 299.5 -263s111 -297.667 111 -515z" />
    <glyph glyph-name="one" unicode="1" 
d="M180 2163v426c140.667 0 268 25.167 382 75.5s182 134.166 204 251.5h573v-2916h-680v2163h-479z" />
    <glyph glyph-name="two" unicode="2" 
d="M745 426l1049 0.000976562v-426h-1728v360c0 210.667 46.5 401.334 139.5 572.001s230.833 358.5 413.5 563.5s310.834 358 384.501 459s110.5 215.5 110.5 343.5c0 139.333 -61.333 209 -184 209c-123.333 0 -185 -69.667 -185 -209v-422h-679v319
c0 218 43.667 384.667 131 500s194.833 190.666 322.5 225.999s271.167 53 430.5 53c146.667 0 283 -23 409 -69s230 -126.5 312 -241.5s123 -268.167 123 -459.5c0 -154 -31 -294.333 -93 -421s-151 -253.834 -267 -381.501l-330 -360.5
c-104 -112.667 -188 -223.334 -252 -332.001l-39.5 -69.5c-17.667 -31 -30.167 -54.833 -37.5 -71.5s-14.166 -37.667 -20.499 -63s-9.5 -51.666 -9.5 -78.999z" />
    <glyph glyph-name="three" unicode="3" 
d="M94 1122h679.997v-491c0 -147.333 57.333 -221 172 -221c117.333 0 176 73.667 176 221v368c0 113.333 -25.833 185.5 -77.5 216.5s-133.5 46.5 -245.5 46.5h-230v467h262c194 0 291 86 291 258v340c0 50.667 -15.667 93.334 -47 128c-31.333 34.667 -74.333 52 -129 52
c-76 0 -123.667 -28.167 -143 -84.5s-29 -133.5 -29 -231.5v-323h-680v418c0 173.333 44.833 311.333 134.5 414s198.334 174 326.001 214s255.5 60 383.5 60c151.333 0 292.5 -21.667 423.5 -65s237.167 -113.833 318.5 -211.5s122 -222.834 122 -375.501v-184
c0 -195.333 -35.333 -339.333 -106 -432s-176 -154.667 -316 -186c-2.66699 0 -4 1.33301 -4 4v-25c142.667 -19.333 249.334 -67.666 320.001 -144.999s106 -205 106 -383v-324c0 -238 -80.167 -414.833 -240.5 -530.5s-368.166 -173.5 -623.499 -173.5
c-562.667 0 -844 226.667 -844 680v499z" />
    <glyph glyph-name="four" unicode="4" 
d="M12 668v467l795 1781h823v-1781h225v-467h-225v-668h-635v668h-983zM987 2310l-524 -1175h532v1175h-8z" />
    <glyph glyph-name="five" unicode="5" 
d="M82 1159l680.001 0.000976562v-524c0 -68.667 16.667 -123.334 50 -164.001s78 -61 134 -61c57.333 0 103.166 20.333 137.499 61s51.5 95.334 51.5 164.001v725c0 68.667 -16.5 123.334 -49.5 164.001s-78.167 61 -135.5 61c-44 0 -86.333 -23 -127 -69
s-61 -91.333 -61 -136h-680v1536h1712v-426h-1065c-2.66699 -61.333 -7.33398 -153.333 -14.001 -276l-15 -277h9c156 134 325.333 201 508 201c184.667 0 330.5 -57 437.5 -171s160.5 -286.333 160.5 -517v-680c0 -198.667 -39.833 -359.834 -119.5 -483.501
s-185 -211.834 -316 -264.501s-275.5 -79 -433.5 -79c-156.667 0 -301.167 26 -433.5 78s-237.166 128 -314.499 228s-116 217.667 -116 353v557z" />
    <glyph glyph-name="six" unicode="6" 
d="M1806 1884l-679.997 0.000976562v365c0 82 -12.333 145.5 -37 190.5s-72.334 67.5 -143.001 67.5c-68 0 -114.333 -22.5 -139 -67.5s-37 -108.5 -37 -190.5v-693c78.667 66 153.667 114.667 225 146s154.666 47 249.999 47c163.333 0 297.666 -49.333 402.999 -148
s158 -237.667 158 -417v-488c0 -256.667 -81.667 -446.334 -245 -569.001s-353.333 -184 -570 -184c-600.667 0 -901 274.333 -901 823v1503c0 229.333 87 404.166 261 524.5c174 120.333 382 180.5 624 180.5c554 0 831 -241.667 831 -725v-365zM967.003 1217
c-62.667 0 -111.167 -15.333 -145.5 -46s-51.5 -70 -51.5 -118v-516c0 -84.667 61.333 -127 184 -127c114.667 0 172 45 172 135v524c0 98.667 -53 148 -159 148z" />
    <glyph glyph-name="seven" unicode="7" 
d="M1106 2490h-1069v426h1794v-413l-959 -2503h-725z" />
    <glyph glyph-name="eight" unicode="8" 
d="M1831 930l-0.000976562 -249.997c0 -164 -40 -301.5 -120 -412.5s-187.833 -192.833 -323.5 -245.5s-288.167 -79 -457.5 -79c-268 0 -478.333 63.667 -631 191s-229 314.666 -229 561.999v316c0 139.333 43.833 254 131.5 344s195.167 144.667 322.5 164v16
c-126 23.333 -233.167 79.5 -321.5 168.5s-132.5 206.167 -132.5 351.5v221c0 250.667 91.333 429.5 274 536.5s391.667 160.5 627 160.5c248 0 453.333 -53.333 616 -160s244 -282.667 244 -528v-258c0 -113.333 -44.667 -217.333 -134 -312
s-197.666 -154.667 -324.999 -180v-16c100 -22.667 181.333 -50.334 244 -83.001s114.167 -89.334 154.5 -170.001s60.5 -193 60.5 -337zM749.999 1090v-525c0 -103.333 69.333 -155 208 -155c66 0 114.667 11.167 146 33.5s47 62.833 47 121.5v520
c0 131.333 -68.333 197 -205 197c-130.667 0 -196 -64 -196 -192zM749.999 2314v-434c0 -66 16.333 -111.167 49 -135.5s81.667 -36.5 147 -36.5c70 0 121.667 12.5 155 37.5s50 75.167 50 150.5v414c0 131.333 -67 197 -201 197c-66.667 0 -116.667 -17.333 -150 -52
s-50 -81.667 -50 -141z" />
    <glyph glyph-name="nine" unicode="9" 
d="M90 1032h679.999v-364c0 -82 12.5 -145.5 37.5 -190.5s72.5 -67.5 142.5 -67.5c69.333 0 116 22.5 140 67.5s36 108.5 36 190.5v692c-79.333 -66 -154.833 -114.667 -226.5 -146s-154.5 -47 -248.5 -47c-163.333 0 -297.666 49.5 -402.999 148.5s-158 238.167 -158 417.5
v487c0 173.333 40 316.833 120 430.5s182.333 196 307 247s254 76.5 388 76.5c600.667 0 901 -274.667 901 -824v-1503c0 -154.667 -41.5 -285.167 -124.5 -391.5s-191.667 -185 -326 -236s-278.833 -76.5 -433.5 -76.5c-554.667 0 -832 241.667 -832 725v364zM929.999 1700
c62.667 0 111 15.167 145 45.5s51 69.833 51 118.5v516c0 84.667 -61.333 127 -184 127c-56 0 -98.667 -12.5 -128 -37.5s-44 -57.5 -44 -97.5v-525c0 -98 53.333 -147 160 -147z" />
    <glyph glyph-name="colon" unicode=":" horiz-adv-x="950" 
d="M791 0h-635v688h635v-688zM791 1655h-635v688h635v-688z" />
    <glyph glyph-name="semicolon" unicode=";" horiz-adv-x="950" 
d="M492 -524h-422l155 1212h652zM791 1655h-635v688h635v-688z" />
    <glyph glyph-name="less" unicode="&#x3c;" horiz-adv-x="2458" 
d="M2150 639v-418l-1843 778v344l1843 779v-418l-1278 -533z" />
    <glyph glyph-name="equal" unicode="=" horiz-adv-x="2458" 
d="M2269 1384h-2081v558h2081v-558zM2269 401h-2081v557h2081v-557z" />
    <glyph glyph-name="greater" unicode="&#x3e;" horiz-adv-x="2458" 
d="M307 221v418l1278 532l-1278 533v418l1843 -779v-344z" />
    <glyph glyph-name="question" unicode="?" 
d="M1262 864l-635.001 0.00195312v369c0 144.667 18.5 257.167 55.5 337.5s95.667 157.5 176 231.5s135.166 129 164.499 165s47.333 95.667 54 179v230c0 59.333 -8.66699 104.833 -26 136.5s-53.666 47.5 -108.999 47.5c-54 0 -89.333 -15.833 -106 -47.5
s-25 -77.167 -25 -136.5v-484h-635v467c0 208.667 75.833 363.334 227.5 464.001s339.5 151 563.5 151c162.667 0 300 -22.333 412 -67s197.5 -113.667 256.5 -207s88.5 -211 88.5 -353v-184c0 -139.333 -19.667 -248.833 -59 -328.5s-98.666 -158.334 -177.999 -236.001
s-135.833 -140.834 -169.5 -189.501s-52.167 -122.334 -55.5 -221.001v-324zM1262 0.00195312h-635v688h635v-688z" />
    <glyph glyph-name="at" unicode="@" horiz-adv-x="3277" 
d="M1581 1016c120.667 0 218.501 42.167 293.501 126.5s112.5 185.5 112.5 303.5c0 64 -12.833 121 -38.5 171s-62.834 88.667 -111.501 116s-104 41 -166 41c-72 0 -137.833 -20 -197.5 -60s-106.5 -92.333 -140.5 -157s-51 -131.667 -51 -201
c0 -97.333 26.667 -178.333 80 -243s126.333 -97 219 -97zM2101 1987l37.001 196h377l-176 -975c-16.667 -77.333 -25 -127.666 -25 -150.999c0 -54.667 17.667 -82 53 -82c95.333 0 180.666 54.167 255.999 162.5s113 263.166 113 464.499c0 214 -44 395.667 -132 545
s-210.833 261.666 -368.5 337c-157.667 75.333 -338.834 113 -543.501 113c-215.333 0 -404.833 -49 -568.5 -147s-289.5 -234.5 -377.5 -409.5s-132 -374.5 -132 -598.5c0 -233.333 48.167 -437 144.5 -611s231.333 -306.833 405 -398.5s372.834 -137.5 597.501 -137.5
c290 0 541.333 82 754 246h389c-278 -398.667 -669.667 -598 -1175 -598c-210.667 0 -410 36.333 -598 109s-353.333 175.834 -496 309.501s-254.167 292.834 -334.5 477.501s-120.5 385.667 -120.5 603c0 285.333 68 545.166 204 779.499s320.833 418.333 554.5 552
s488.834 200.5 765.501 200.5c176 0 348 -29.333 516 -88s317.5 -142 448.5 -250s235.167 -239.333 312.5 -394s116 -324.334 116 -509.001c0 -218 -39.667 -404.667 -119 -560s-177 -277.833 -293 -367.5s-230 -154.167 -342 -193.5s-203.667 -59 -275 -59
c-58.667 0 -107.834 17.333 -147.501 52s-62.834 85.667 -69.501 153c-50 -60.667 -109.667 -110 -179 -148s-136.666 -57 -201.999 -57c-112 0 -219.167 33.5 -321.5 100.5s-184.166 157 -245.499 270s-92 233.833 -92 362.5c0 120 19 236.167 57 348.5s92.333 213 163 302
s156.167 159.167 256.5 210.5s209.166 77 326.499 77c212 0 374.333 -79 487 -237z" />
    <glyph glyph-name="A" unicode="A" 
d="M803 1159h246l-119 1299h-8zM541 2916h934l376 -2916h-675l-78 717h-369l-111 -717h-573z" />
    <glyph glyph-name="B" unicode="B" 
d="M770 1315l0.000976562 -896.998c112.667 0 195 19 247 57s83.833 88.167 95.5 150.5s17.5 152.833 17.5 271.5c0 137.333 -9.83301 234.666 -29.5 291.999s-51.834 92.666 -96.501 105.999s-122.667 20 -234 20zM90.001 0.00195312l0.000976562 2916h688
c242.667 0 432.334 -12 569.001 -36s248 -87 334 -189s129 -263 129 -483c0 -404 -161 -621.333 -483 -652v-28c136.667 0 240.167 -30.167 310.5 -90.5s116.666 -139.333 138.999 -237s33.5 -220.834 33.5 -369.501c0 -259.333 -34.5 -447.833 -103.5 -565.5
s-170.833 -191.334 -305.5 -221.001s-342.334 -44.5 -623.001 -44.5h-688zM770.002 2499l-0.000976562 -765.997c56.667 1.33301 107.834 2.66602 153.501 3.99902s83.167 11.166 112.5 29.499s52.333 54.666 69 108.999s25 133.833 25 238.5c0 102 -7 178.667 -21 230
s-46.5 90 -97.5 116s-131.5 39 -241.5 39z" />
    <glyph glyph-name="C" unicode="C" 
d="M1135 1135h674.999v-385c0 -538 -288 -807 -864 -807c-570.667 0 -856 284 -856 852v1327c0 568 285.333 852 856 852c276.667 0 489.834 -56.333 639.501 -169s224.5 -316 224.5 -610v-319h-680v401c0 153.333 -61.333 230 -184 230c-117.333 0 -176 -76.667 -176 -230
v-1638c0 -152.667 58.667 -229 176 -229c122.667 0 184 76.333 184 229z" />
    <glyph glyph-name="D" unicode="D" 
d="M90 0l-0.00292969 2916h701c204.667 0 369.334 -11.833 494.001 -35.5s225.834 -69.334 303.501 -137c77.667 -67.667 134 -166.834 169 -297.501s52.5 -305.667 52.5 -525v-1040c0 -199.333 -26.833 -362.166 -80.5 -488.499s-154.667 -223.333 -303 -291
s-360.166 -101.5 -635.499 -101.5h-701zM769.997 2499l0.000976562 -2081c107.333 0 186.666 13.833 237.999 41.5s84.5 69 99.5 124s22.5 134.833 22.5 239.5v1200c0 144 -6.5 247 -19.5 309s-44 105.333 -93 130s-131.5 37 -247.5 37z" />
    <glyph glyph-name="E" unicode="E" horiz-adv-x="1516" 
d="M1491 0h-1409v2916h1409v-442h-729v-639h704v-442h-704v-951h729v-442z" />
    <glyph glyph-name="F" unicode="F" horiz-adv-x="1516" 
d="M762 0h-680v2916h1409v-442h-729v-639h704v-442h-704v-1393z" />
    <glyph glyph-name="G" unicode="G" 
d="M1413 0l-36.998 147.001c-70.667 -78.667 -163.334 -133 -278.001 -163c-85.333 -27.333 -189.333 -41 -312 -41c-157.333 0 -286.333 25.5 -387 76.5s-177.334 139.167 -230.001 264.5s-79 295.666 -79 510.999v1327c0 210.667 38.667 379.334 116 506
c77.333 126.667 179.833 216 307.5 268s273.167 78 436.5 78c284 0 498.167 -62.667 642.5 -188s218.5 -327.666 222.5 -607l-5 -307h-680v405c0 153.333 -60 230 -180 230s-180 -76.667 -180 -230v-1638c0 -152.667 60 -229 180 -229s180 76.333 180 229v389h-258v442h938
v-1470h-397z" />
    <glyph glyph-name="H" unicode="H" 
d="M770 0h-680v2916h680v-1081h360v1081h680v-2916h-680v1393h-360v-1393z" />
    <glyph glyph-name="I" unicode="I" horiz-adv-x="836" 
d="M758 0h-680v2916h680v-2916z" />
    <glyph glyph-name="J" unicode="J" 
d="M1102 2916l680 -0.000976562v-2175c0 -153.333 -22.667 -288.166 -68 -404.499s-131.833 -211 -259.5 -284s-305.167 -109.5 -532.5 -109.5c-120 0 -244 18.167 -372 54.5s-240 107.5 -336 213.5s-144 254 -144 444v471h680v-421c0 -91.333 10 -163.333 30 -216
s68.667 -79 146 -79s126 26.333 146 79s30 124.667 30 216v2211z" />
    <glyph glyph-name="K" unicode="K" 
d="M770 0h-680v2916h680v-1323h8l430 1323h647l-454 -1286l459 -1630h-672l-410 1479h-8v-1479z" />
    <glyph glyph-name="L" unicode="L" horiz-adv-x="1516" 
d="M1499 0h-1417v2916h680v-2474h737v-442z" />
    <glyph glyph-name="M" unicode="M" horiz-adv-x="2732" 
d="M631 2490v-2490h-545v2916h999l287 -2072h8l287 2072h979v-2916h-614v2490h-9l-393 -2490h-598l-393 2490h-8z" />
    <glyph glyph-name="N" unicode="N" horiz-adv-x="2048" 
d="M66 0v2916h942l434 -2121h8v2121h532v-2916h-872l-504 2437h-8v-2437h-532z" />
    <glyph glyph-name="O" unicode="O" 
d="M770 2277v-1638c0 -152.667 60 -229 180 -229s180 76.333 180 229v1638c0 153.333 -60 230 -180 230s-180 -76.667 -180 -230zM1810 2122l0.000976562 -1327c0 -568 -286.667 -852 -860 -852s-860 284 -860 852v1327c0 210.667 38.667 379.334 116 506
c77.333 126.667 179.833 216 307.5 268s273.167 78 436.5 78c164 0 309.667 -26 437 -78s229.666 -141.333 306.999 -268s116 -295.334 116 -506z" />
    <glyph glyph-name="P" unicode="P" 
d="M770 2499v-955h107c78 0 134.667 15.167 170 45.5s58 77.5 68 141.5s15 160 15 288c0 128.667 -5 225.334 -15 290c-10 64.667 -32.833 112.5 -68.5 143.5s-92.167 46.5 -169.5 46.5h-107zM770 0h-679.999v2916h832c293.333 0 514.666 -45.167 663.999 -135.5
s224 -253.833 224 -490.5v-533c0 -206 -76.833 -362.667 -230.5 -470s-340.167 -161 -559.5 -161h-250v-1126z" />
    <glyph glyph-name="Q" unicode="Q" 
d="M770 2277v-1638c0 -152.667 60 -229 180 -229s180 76.333 180 229v1638c0 153.333 -60 230 -180 230s-180 -76.667 -180 -230zM1769 -20l0.00195312 -504c-180.667 0 -317.834 10.5 -411.501 31.5s-164.5 65 -212.5 132s-76 169.5 -84 307.5
c-24.667 -2.66699 -61.667 -4 -111 -4c-573.333 0 -860 284 -860 852v1327c0 210.667 38.667 379.334 116 506c77.333 126.667 179.833 216 307.5 268s273.167 78 436.5 78c164 0 309.667 -26 437 -78s229.666 -141.333 306.999 -268s116 -295.334 116 -506.001v-1327
c0 -367.333 -122.667 -614.666 -368 -741.999v-73h327z" />
    <glyph glyph-name="R" unicode="R" 
d="M762 0l-680.002 -0.00195312v2916h684c245.333 0 439.333 -15 582 -45s253.334 -94 332.001 -192s118 -245.667 118 -443c0 -384.667 -173.333 -605.667 -520 -663v-8c174.667 -4 305 -46.667 391 -128s129 -221.666 129 -420.999v-610
c0 -171.333 34.333 -306.666 103 -405.999h-684c-66 96 -99 231.333 -99 406v618c0 96.667 -24.167 172 -72.5 226s-106.166 81 -173.499 81h-110v-1331zM761.998 2499v-750c101.333 0 177.333 12 228 36s84.667 61.833 102 113.5s26 127.5 26 227.5
c0 143.333 -22.167 241.333 -66.5 294s-140.833 79 -289.5 79z" />
    <glyph glyph-name="S" unicode="S" 
d="M1810 1872l-680.002 -0.000976562v409c0 150.667 -60 226 -180 226c-69.333 0 -116.666 -18 -141.999 -54s-38 -93.333 -38 -172c0 -106 32 -190.667 96 -254s190.833 -171.666 380.5 -324.999s331 -300.333 424 -441s139.5 -312.667 139.5 -516
c0 -272 -72.167 -473.667 -216.5 -605s-360.166 -197 -647.499 -197c-247.333 0 -451.833 50.5 -613.5 151.5s-242.5 267.5 -242.5 499.5v541h680v-504c0 -84 13.833 -141.833 41.5 -173.5s73.834 -47.5 138.501 -47.5c120 0 180 73.667 180 221
c0 145.333 -39.333 261.666 -118 348.999s-206.834 200.333 -384.501 339s-311.667 274.834 -402 408.501s-135.5 306.167 -135.5 517.5c0 486 291 729 873 729c254 0 458.667 -50.333 614 -151s233 -264.667 233 -492v-459z" />
    <glyph glyph-name="T" unicode="T" horiz-adv-x="1745" 
d="M532 2474h-475v442h1631v-442h-476v-2474h-680v2474z" />
    <glyph glyph-name="U" unicode="U" 
d="M1810 2916l-0.00195312 -2085c-5.33301 -210.667 -36 -380.5 -92 -509.5s-146.333 -224.333 -271 -286s-291.667 -92.5 -501 -92.5c-257.333 0 -449 49.667 -575 149s-204.333 215 -235 347s-46 284.667 -46 458v2019h680v-2101c0 -98.667 2.83301 -174.334 8.5 -227.001
s21.334 -95.5 47.001 -128.5s65.834 -49.5 120.501 -49.5c58 0 100.167 16.5 126.5 49.5s42.5 75.833 48.5 128.5s9 128.334 9 227.001v2101h680z" />
    <glyph glyph-name="V" unicode="V" 
d="M483 0l-450 2916h729l164 -2248h8l295 2248h635l-488 -2916h-893z" />
    <glyph glyph-name="W" unicode="W" horiz-adv-x="2884" 
d="M397 0l-385 2916h697l143 -2076h8l262 2076h738l184 -2076h8l213 2076h602l-381 -2916h-794l-262 2249h-9l-241 -2249h-783z" />
    <glyph glyph-name="X" unicode="X" 
d="M905 1167l-254 -1167h-618l409 1565l-405 1351h741l234 -1159h8l229 1159h619l-406 -1446l406 -1470h-721l-234 1167h-8z" />
    <glyph glyph-name="Y" unicode="Y" 
d="M610 0v1073l-577 1843h663l250 -1159h8l250 1159h664l-578 -1843v-1073h-680z" />
    <glyph glyph-name="Z" unicode="Z" horiz-adv-x="1516" 
d="M1495 0h-1475v500l762 1974h-762v442h1475v-430l-795 -2044h795v-442z" />
    <glyph glyph-name="bracketleft" unicode="[" horiz-adv-x="1212" 
d="M1098 -254h-983v3228h979v-459h-414v-2310h418v-459z" />
    <glyph glyph-name="backslash" unicode="\" horiz-adv-x="1139" 
d="M-197 2974h320l1212 -3031h-319z" />
    <glyph glyph-name="bracketright" unicode="]" horiz-adv-x="1212" 
d="M1098 -254h-983v459h417v2310h-413v459h979v-3228z" />
    <glyph glyph-name="asciicircum" unicode="^" horiz-adv-x="2458" 
d="M774 1421h-475l713 1495h434l713 -1495h-480l-450 1016z" />
    <glyph glyph-name="underscore" unicode="_" horiz-adv-x="2048" 
d="M2048 -401h-2048v278h2048v-278z" />
    <glyph glyph-name="grave" unicode="`" horiz-adv-x="836" 
d="M713 2617h-275l-598 578h471z" />
    <glyph glyph-name="a" unicode="a" horiz-adv-x="1745" 
d="M737 856v-253.999c0 -38.667 11.5 -68.834 34.5 -90.501s51.167 -32.5 84.5 -32.5c64 0 105.333 21.5 124 64.5s28 121.167 28 234.5v406l-132 -89c-42.667 -28.667 -76.5 -61.5 -101.5 -98.5s-37.5 -83.833 -37.5 -140.5zM1008 0.000976562l-0.000976562 273.998h-9
c-43.333 -95.333 -100.166 -169.666 -170.499 -222.999s-164.833 -80 -283.5 -80c-142.667 0 -254.167 41.833 -334.5 125.5s-120.5 201.834 -120.5 354.501v348c0 137.333 40.167 246.333 120.5 327s198.333 159 354 235s268.5 140 338.5 192s105 125.667 105 221
c0 114.667 -45.333 172 -136 172c-90 0 -135 -57.333 -135 -172v-258h-647v217c0 218.667 75.5 379.834 226.5 483.501s336.167 155.5 555.5 155.5c220 0 405.5 -51.833 556.5 -155.5s226.5 -264.834 226.5 -483.501v-1733h-647z" />
    <glyph glyph-name="b" unicode="b" horiz-adv-x="1745" 
d="M737 1679v-1015c0 -48.667 12.5 -87.5 37.5 -116.5s57.5 -43.5 97.5 -43.5c40.667 0 73.5 14.167 98.5 42.5s37.5 67.5 37.5 117.5v1015c0 51.333 -12.5 90.833 -37.5 118.5s-57.833 41.5 -98.5 41.5c-40 0 -72.5 -14.167 -97.5 -42.5s-37.5 -67.5 -37.5 -117.5zM90 0
v2916h647v-893h8c29.333 108 83.833 193.167 163.5 255.5s178.167 93.5 295.5 93.5c300.667 0 451 -173.667 451 -521v-1294c0 -164 -36.333 -302.667 -109 -416s-190.667 -170 -354 -170c-267.333 0 -416.333 108 -447 324h-8v-295h-647z" />
    <glyph glyph-name="c" unicode="c" horiz-adv-x="1745" 
d="M1008 1516l-0.000976562 266.001c0 109.333 -45.333 164 -136 164c-90 0 -135 -54.667 -135 -164v-1221c0 -109.333 45 -164 135 -164c90.667 0 136 54.667 136 164v365h647v-344c0 -210.667 -70.333 -365.167 -211 -463.5s-332.667 -147.5 -576 -147.5
c-518.667 0 -778 217.333 -778 652v1093c0 127.333 30.833 240.833 92.5 340.5s151.334 177.167 269.001 232.5s256.5 83 416.5 83c150 0 283.667 -21 401 -63s211 -112.333 281 -211s105 -227.334 105 -386.001v-196h-647z" />
    <glyph glyph-name="d" unicode="d" horiz-adv-x="1745" 
d="M737 1679v-1015c0 -48.667 12.5 -87.5 37.5 -116.5s57.5 -43.5 97.5 -43.5c40.667 0 73.5 14.167 98.5 42.5s37.5 67.5 37.5 117.5v1015c0 51.333 -12.5 90.833 -37.5 118.5s-57.833 41.5 -98.5 41.5c-40 0 -72.5 -14.167 -97.5 -42.5s-37.5 -67.5 -37.5 -117.5zM1008 0
v295h-9c-29.333 -216 -178 -324 -446 -324c-163.333 0 -281.333 56.667 -354 170s-109 252 -109 416v1294c0 347.333 150.333 521 451 521c117.333 0 216 -31.167 296 -93.5s134 -147.5 162 -255.5h9v893h647v-2916h-647z" />
    <glyph glyph-name="e" unicode="e" horiz-adv-x="1745" 
d="M1655 1098l-918.001 0.00195312v-475c0 -150.667 45 -226 135 -226c90.667 0 136 75.333 136 226v303h647v-344c0 -210.667 -70 -365.167 -210 -463.5s-331 -147.5 -573 -147.5c-142.667 0 -273.5 22.5 -392.5 67.5s-213.667 114.5 -284 208.5s-105.5 209.667 -105.5 347
v1118c0 211.333 67.333 374.166 202 488.499s328 171.5 580 171.5c148.667 0 281.334 -21 398.001 -63s210 -112.333 280 -211s105 -227.334 105 -386.001v-614zM736.999 1487h271v319c0 93.333 -45.333 140 -136 140c-90 0 -135 -46.667 -135 -140v-319z" />
    <glyph glyph-name="f" unicode="f" horiz-adv-x="1061" 
d="M172 1917h-143v426h143v151c0 66 15 131.5 45 196.5s76.5 118.833 139.5 161.5s140.833 64 233.5 64h414v-426c-74.667 0 -124.167 -11.5 -148.5 -34.5s-36.5 -60.5 -36.5 -112.5h185v-426h-185v-1917h-647v1917z" />
    <glyph glyph-name="g" unicode="g" horiz-adv-x="1745" 
d="M737 1663v-672c0 -117.333 45 -176 135 -176c90.667 0 136 58.667 136 176v672c0 117.333 -45.333 176 -136 176c-90 0 -135 -58.667 -135 -176zM1655 2343l0.00195312 -2118c0 -199.333 -43.167 -354.666 -129.5 -465.999s-189.333 -186.333 -309 -225
s-239.834 -58 -360.501 -58c-157.333 0 -294.333 23.167 -411 69.5s-205 107.666 -265 183.999s-90 156.833 -90 241.5v230h647v-156c0 -95.333 45 -143 135 -143c90.667 0 136 47.667 136 143v582h-13c-10 -100 -51.833 -182.333 -125.5 -247s-162.834 -97 -267.501 -97
c-341.333 0 -512 196.333 -512 589v959c0 177.333 40.5 311.833 121.5 403.499c81 91.667 181.167 137.5 300.5 137.5c125.333 0 225.333 -27.167 300 -81.5s135.667 -137.833 183 -250.5h9v303h651z" />
    <glyph glyph-name="h" unicode="h" horiz-adv-x="1745" 
d="M737 0h-647v2916h647v-864h8c68.667 213.333 221.667 320 459 320c300.667 0 451 -185.667 451 -557v-1815h-647v1585c0 82.667 -8 145.667 -24 189s-53.333 65 -112 65c-58 0 -95 -21.667 -111 -65s-24 -106.333 -24 -189v-1585z" />
    <glyph glyph-name="i" unicode="i" horiz-adv-x="836" 
d="M741 0h-647v2343h647v-2343zM741 2503h-647v413h647v-413z" />
    <glyph glyph-name="j" unicode="j" horiz-adv-x="836" 
d="M741 2343v-2396c0 -173.333 -37.5 -295.166 -112.5 -365.499s-199.833 -105.5 -374.5 -105.5h-451v426h86c55.333 0 97.333 6.66699 126 20s49 38.5 61 75.5s18 92.5 18 166.5v2179h647zM94 2916h647v-413h-647v413z" />
    <glyph glyph-name="k" unicode="k" horiz-adv-x="1745" 
d="M737 0h-647v2916h647v-1642h8l332 1069h627l-373 -1049l406 -1294h-660l-332 1225h-8v-1225z" />
    <glyph glyph-name="l" unicode="l" horiz-adv-x="836" 
d="M741 0h-647v2916h647v-2916z" />
    <glyph glyph-name="m" unicode="m" horiz-adv-x="2580" 
d="M721 2343l-0.00195312 -310.998h8c68.667 226.667 219 340 451 340c234.667 0 375.334 -113.333 422.001 -340h8c18.667 104.667 68.834 187.5 150.501 248.5s180.167 91.5 295.5 91.5c284 0 426 -165.333 426 -496v-1876h-622v1626c0 67.333 -8 119.666 -24 156.999
s-51.667 56 -107 56c-54.667 0 -89.5 -18.333 -104.5 -55s-22.5 -89.334 -22.5 -158.001v-1626h-623v1626c0 66.667 -8.16699 118.834 -24.5 156.501s-51.833 56.5 -106.5 56.5s-89.5 -18.333 -104.5 -55s-22.5 -89.334 -22.5 -158.001v-1626h-623v2343h623z" />
    <glyph glyph-name="n" unicode="n" horiz-adv-x="1745" 
d="M737 2343v-290.999h8c64.667 213.333 222 320 472 320c144 0 253 -47 327 -141s111 -226 111 -396v-1835h-647v1626c0 67.333 -8 119.666 -24 156.999s-51.667 56 -107 56c-93.333 0 -140 -71 -140 -213v-1626h-647v2343h647z" />
    <glyph glyph-name="o" unicode="o" horiz-adv-x="1745" 
d="M737 1782v-1221c0 -109.333 45 -164 135 -164c90.667 0 136 54.667 136 164v1221c0 109.333 -45.333 164 -136 164c-90 0 -135 -54.667 -135 -164zM1655 1712l-0.000976562 -1118c0 -137.333 -35.167 -253 -105.5 -347s-165 -163.5 -284 -208.5
s-250.167 -67.5 -393.5 -67.5c-142.667 0 -273.5 22.5 -392.5 67.5s-213.667 114.5 -284 208.5s-105.5 209.667 -105.5 347v1118c0 211.333 67.333 374.166 202 488.499s328 171.5 580 171.5c252.667 0 446.334 -57.167 581.001 -171.5s202 -277.166 202 -488.499z" />
    <glyph glyph-name="p" unicode="p" horiz-adv-x="1745" 
d="M737 1679v-1015c0 -48.667 12.5 -87.5 37.5 -116.5s57.5 -43.5 97.5 -43.5c40.667 0 73.5 14.167 98.5 42.5s37.5 67.5 37.5 117.5v1015c0 51.333 -12.5 90.833 -37.5 118.5s-57.833 41.5 -98.5 41.5c-40 0 -72.5 -14.167 -97.5 -42.5s-37.5 -67.5 -37.5 -117.5z
M737 2343l0.00292969 -307h8c30 224 179 336 447 336c111.333 0 201.666 -28 270.999 -84s118.666 -129.167 147.999 -219.5s44 -188.5 44 -294.5v-1295c0 -154 -36.333 -277.167 -109 -369.5s-186.667 -138.5 -342 -138.5c-118 0 -216.833 29.5 -296.5 88.5
s-133.834 141.5 -162.501 247.5h-8v-831h-647v2867h647z" />
    <glyph glyph-name="q" unicode="q" horiz-adv-x="1745" 
d="M737 1679v-1015c0 -48.667 12.5 -87.5 37.5 -116.5s57.5 -43.5 97.5 -43.5c40.667 0 73.5 14.167 98.5 42.5s37.5 67.5 37.5 117.5v1015c0 51.333 -12.5 90.833 -37.5 118.5s-57.833 41.5 -98.5 41.5c-40 0 -72.5 -14.167 -97.5 -42.5s-37.5 -67.5 -37.5 -117.5z
M1655 2343v-2867h-647v831h-9c-28 -106 -81.833 -188.5 -161.5 -247.5s-178.5 -88.5 -296.5 -88.5c-155.333 0 -269.333 46.333 -342 139s-109 215.667 -109 369v1295c0 169.333 36.167 311.333 108.5 425.999c72.333 114.667 190.5 172 354.5 172
c268 0 416.667 -112 446 -336h9v307h647z" />
    <glyph glyph-name="r" unicode="r" horiz-adv-x="1745" 
d="M737 2343l-0.000976562 -307.001h13c94 224 249.667 336 467 336c152.667 0 263.834 -43.167 333.501 -129.5s104.5 -196.166 104.5 -329.499v-836h-647v570c0 128 -45.333 192 -136 192c-90 0 -135 -64 -135 -192v-1647h-647v2343h647z" />
    <glyph glyph-name="s" unicode="s" horiz-adv-x="1745" 
d="M1655 1516l-646.998 0.000976562v253c0 118 -45.333 177 -136 177c-90 0 -135 -59 -135 -177c0 -85.333 24.5 -146 73.5 -182s159.167 -102.167 330.5 -198.5s297.666 -195.333 378.999 -297s122 -238.834 122 -411.501c0 -232.667 -69.167 -409 -207.5 -529
s-342.166 -180 -611.499 -180c-222.667 0 -400.5 47 -533.5 141s-199.5 241 -199.5 441v373h647v-353c0 -117.333 45 -176 135 -176c90.667 0 136 58.667 136 176c0 122.667 -34.833 214 -104.5 274s-182.834 131.833 -339.501 215.5s-274.834 171.667 -354.501 264
s-119.5 223.5 -119.5 393.5c0 222.667 69.333 387 208 493s322 159 550 159c252 0 449.5 -49.667 592.5 -149s214.5 -245 214.5 -437v-270z" />
    <glyph glyph-name="t" unicode="t" horiz-adv-x="1212" 
d="M250 1917l-216.999 0.000976562v426h217v422h647v-422h283v-426h-283v-1278c0 -80.667 8.66699 -136.334 26 -167.001s60.666 -46 129.999 -46h127v-426h-529c-152.667 0 -257.667 40 -315 120s-86 202.333 -86 367v1430z" />
    <glyph glyph-name="u" unicode="u" horiz-adv-x="1745" 
d="M1008 0l0.000976562 291.001h-9c-63.333 -213.333 -220.333 -320 -471 -320c-142.667 0 -251.334 47 -326.001 141s-112 226 -112 396v1835h647v-1626c0 -66.667 8.33301 -118.834 25 -156.501s52 -56.5 106 -56.5c93.333 0 140 71 140 213v1626h647v-2343h-647z" />
    <glyph glyph-name="v" unicode="v" horiz-adv-x="1745" 
d="M492 0l-447 2343h655l218 -1819h8l217 1819h557l-422 -2343h-786z" />
    <glyph glyph-name="w" unicode="w" horiz-adv-x="2732" 
d="M381 0l-361 2343h648l172 -1811h8l205 1811h716l218 -1811h8l143 1811h569l-335 -2343h-791l-213 1868h-8l-213 -1868h-766z" />
    <glyph glyph-name="x" unicode="x" horiz-adv-x="1745" 
d="M815 995l-225 -995h-574l394 1221l-369 1122h668l200 -905h9l200 905h578l-381 -1122l414 -1221h-680l-226 995h-8z" />
    <glyph glyph-name="y" unicode="y" horiz-adv-x="1745" 
d="M49 2343h655.998l217 -1618h8l217 1618h545l-525 -2470c-25.333 -130.667 -83.166 -229.5 -173.499 -296.5s-207.166 -100.5 -350.499 -100.5h-520v426h336c76 0 114 21.667 114 65c0 14 -5.33301 48.333 -16 103z" />
    <glyph glyph-name="z" unicode="z" horiz-adv-x="1364" 
d="M1352 0h-1340v426l602 1491h-602v426h1319v-361l-626 -1556h647v-426z" />
    <glyph glyph-name="braceleft" unicode="{" horiz-adv-x="1364" 
d="M115 1204v340.003c91.333 5.33301 161.833 22.833 211.5 52.5s74.5 92.834 74.5 189.501v713c0 101.333 31.5 188 94.5 260s137.667 125.833 224 161.5s161.833 53.5 226.5 53.5h303v-312h-45c-98 0 -162 -20.833 -192 -62.5s-45 -95.834 -45 -162.501v-725
c0 -116 -55.667 -198.167 -167 -246.5s-227.666 -76.833 -348.999 -85.5v-8c137.333 -11.333 257.666 -39.5 360.999 -84.5s155 -138.167 155 -279.5v-729c0 -148 79 -222 237 -222h45v-311h-303c-65.333 0 -141 18.167 -227 54.5s-160.5 90.666 -223.5 162.999
s-94.5 158.166 -94.5 257.499v742c0 96.667 -24.833 159.667 -74.5 189s-120.167 46.666 -211.5 51.999z" />
    <glyph glyph-name="bar" unicode="|" horiz-adv-x="909" 
d="M176 0v2916h557v-2916h-557z" />
    <glyph glyph-name="braceright" unicode="}" horiz-adv-x="1364" 
d="M1249 1544v-340.002c-92 -5.33301 -162.667 -22.666 -212 -51.999s-74 -92.333 -74 -189v-742c0 -99.333 -31.5 -185.166 -94.5 -257.499s-137.5 -126.666 -223.5 -162.999s-161.667 -54.5 -227 -54.5h-303v311h45c158 0 237 74 237 222v729
c0 141.333 51.833 234.5 155.5 279.5s223.834 73.167 360.501 84.5v8c-120.667 8.66699 -236.834 37.167 -348.501 85.5s-167.5 130.5 -167.5 246.5v725c0 66 -15 120 -45 162s-94 63 -192 63h-45v312h303c64.667 0 140.167 -17.833 226.5 -53.5s161 -89.5 224 -161.5
s94.5 -158.667 94.5 -260v-713c0 -96.667 24.667 -159.834 74 -189.501s120 -47.167 212 -52.5z" />
    <glyph glyph-name="asciitilde" unicode="~" horiz-adv-x="2458" 
d="M2028 1417l147 -393c-54.667 -75.333 -103.334 -136.5 -146 -183.5c-42.667 -47 -94.667 -86.833 -156 -119.5s-131.333 -49 -210 -49c-114.667 0 -254 45 -418 135c-168.667 95.333 -325.667 143 -471 143c-139.333 0 -254 -98.333 -344 -295l-147 394
c122.667 234.667 293.334 352 512.001 352c106.667 0 258 -43.667 454 -131l148 -65.5c60.667 -27 112 -47.5 154 -61.5s80.667 -21 116 -21c73.333 0 136.166 25.5 188.499 76.5s109.833 123.833 172.5 218.5z" />
    <glyph glyph-name="sterling" unicode="&#xa3;" 
d="M1102 2916l680 -0.000976562v-2175c0 -153.333 -22.667 -288.166 -68 -404.499s-131.833 -211 -259.5 -284s-305.167 -109.5 -532.5 -109.5c-120 0 -244 18.167 -372 54.5s-240 107.5 -336 213.5s-144 254 -144 444v471h680v-421c0 -91.333 10 -163.333 30 -216
s68.667 -79 146 -79s126 26.333 146 79s30 124.667 30 216v2211z" />
    <glyph glyph-name="section" unicode="&#xa4;" 
d="M53 918l201 195.999c-106.667 125.333 -160 285 -160 479c0 220 53.333 381.333 160 484l-201 200l217 217l197 -196c51.333 45.333 121.833 81.833 211.5 109.5s182.834 41.5 279.501 41.5c90.667 0 178.334 -13.333 263.001 -40s150 -61 196 -103l197 197l233 -234
l-192 -192c45.333 -47.333 81.166 -114.333 107.499 -201s39.5 -178 39.5 -274c0 -204.667 -50.333 -368.667 -151 -492l192 -192l-209 -209l-196 200c-114.667 -109.333 -276 -164 -484 -164c-98 0 -191.333 13.833 -280 41.5s-160.334 65.834 -215.001 114.501l-193 -192z
M954 1122c84 0 158.5 21.667 223.5 65s115.667 101.833 152 175.5s54.5 153.5 54.5 239.5c0 82.667 -18 160.334 -54 233.001s-86.333 130.5 -151 173.5s-138.334 64.5 -221.001 64.5c-130.667 0 -237.667 -46 -321 -138s-125 -206 -125 -342
c0 -86.667 18.833 -165.834 56.5 -237.501s90.334 -128.5 158.001 -170.5s143.5 -63 227.5 -63z" />
    <glyph glyph-name="paragraph" unicode="&#xa6;" horiz-adv-x="909" 
d="M176 0v1090h557v-1090h-557zM176 1827v1089h557v-1089h-557z" />
    <glyph glyph-name="germandbls" unicode="&#xa7;" horiz-adv-x="1745" 
d="M668 1720c-68.667 -45.333 -103.001 -104 -103.001 -176c0 -48 28.667 -100.667 86 -158s135 -122.833 233 -196.5s158.333 -122.167 181 -145.5c28.667 20 52.834 45.833 72.501 77.5s29.5 63.5 29.5 95.5c0 54.667 -27.333 109 -82 163s-131.167 116.833 -229.5 188.5
s-160.833 122.167 -187.5 151.5zM1548 2380l-483.003 -0.000976562c0 61.333 -12.333 110.333 -37 147c-26.667 41.333 -69 62 -127 62c-50 0 -92.5 -14.5 -127.5 -43.5s-52.5 -67.833 -52.5 -116.5c0 -72 56.833 -153.5 170.5 -244.5l332.5 -255
c108 -79 202.667 -171.667 284 -278s122 -230.833 122 -373.5c0 -207.333 -90 -374 -270 -500c0 3.33301 16.167 -11.5 48.5 -44.5s61 -80 86 -141s37.5 -141.167 37.5 -240.5c0 -130 -29.667 -241.333 -89 -334s-140.166 -162.5 -242.499 -209.5s-218.5 -70.5 -348.5 -70.5
c-134.667 0 -253.167 23.167 -355.5 69.5s-182.666 118.833 -240.999 217.5s-87.5 222.667 -87.5 372h471c2 -89.333 18.667 -156.666 50 -201.999s88.333 -68 171 -68c48 0 88.667 17 122 51s50 75.667 50 125c0 80.667 -32 149.667 -96 207s-177 143.5 -339 258.5
s-282.833 222 -362.5 321s-119.5 216.5 -119.5 352.5c0 130.667 19.5 237.5 58.5 320.5s108.167 165.833 207.5 248.5c-95.333 63.333 -143 183.666 -143 361c0 126.667 30 235.5 90 326.5s141.333 159.667 244 206s216.334 69.5 341.001 69.5
c176.667 0 326.667 -52.667 450 -158s185 -250.666 185 -436z" />
    <glyph glyph-name="registered" unicode="&#xa8;" horiz-adv-x="1516" 
d="M1491 0h-1409v2916h1409v-442h-729v-639h704v-442h-704v-951h729v-442zM1327 3133h-459v504h459v-504zM647 3133h-459v504h459v-504z" />
    <glyph glyph-name="copyright" unicode="&#xa9;" horiz-adv-x="3277" 
d="M1638 -57c-204.667 0 -402.5 33.8301 -593.5 101.497s-361.167 167.334 -510.5 299.001s-266.833 292.334 -352.5 482.001s-128.5 400.5 -128.5 632.5c0 232.667 42.667 443.834 128 633.501s202.333 350.167 351 481.5s318.167 231 508.5 299s389.5 102 597.5 102
s407.333 -34.167 598 -102.5s360.167 -167.833 508.5 -298.5s265.333 -291 351 -481s128.5 -401.333 128.5 -634c0 -232 -42.833 -443 -128.5 -633s-203.167 -350.5 -352.5 -481.5s-319.5 -230.5 -510.5 -298.5s-389.167 -102 -594.5 -102zM2720 1458
c0 166 -28.167 319.501 -84.5 460.501s-134.666 262.167 -235 363.5c-100.333 101.333 -216 179.166 -347 233.499s-269.5 81.5 -415.5 81.5c-196.667 0 -378.167 -48 -544.5 -144s-297.333 -230.667 -393 -404s-143.5 -370.333 -143.5 -591
c0 -219.333 47.833 -415.833 143.5 -589.5s226.5 -308.667 392.5 -405s347.667 -144.5 545 -144.5c146 0 284.667 27.5 416 82.5s247.166 133.333 347.5 235c100.333 101.667 178.5 222.5 234.5 362.5s84 293 84 459zM2044 1237l389 0.00292969
c-19.333 -132.667 -64.166 -247.5 -134.5 -344.5c-70.333 -97 -157.666 -169.667 -261.999 -218s-216.5 -72.5 -336.5 -72.5c-164.667 0 -311.334 38.167 -440.001 114.5s-228.167 180.666 -298.5 312.999s-105.5 279.166 -105.5 440.499
c0 167.333 33.833 317.666 101.5 450.999s165 237.666 292 312.999s274.5 113 442.5 113c124.667 0 237.667 -23.833 339 -71.5s185.666 -118.5 253 -212.5c67.333 -94 111.666 -208.333 133 -343h-373c-6 86.667 -40 151.334 -102 194.001s-142.667 64 -242 64
c-115.333 -4 -208.333 -51.333 -279 -142s-106 -209.667 -106 -357c0 -142.667 35.833 -261.667 107.5 -357s164.167 -143 277.5 -143c98.667 0 179.167 21.5 241.5 64.5s96.5 107.5 102.5 193.5z" />
    <glyph glyph-name="acute" unicode="&#xab;" horiz-adv-x="1516" 
d="M1454 406l-618 622v549l618 623v-590l-307 -307l307 -308v-589zM680 406l-619 622v549l619 623v-590l-307 -307l307 -308v-589z" />
    <glyph glyph-name="dieresis" unicode="&#xac;" horiz-adv-x="2458" 
d="M1774 664v720h-1586v496h2081v-1216h-495z" />
    <glyph glyph-name="notequal" unicode="&#xad;" horiz-adv-x="836" 
d="M995 2769h-1151v303h1151v-303z" />
    <glyph glyph-name="AE" unicode="&#xae;" horiz-adv-x="3277" 
d="M1638 -57c-204.667 0 -402.831 33.998 -594.498 101.998s-361.834 167.5 -510.501 298.5s-265.834 290.833 -351.501 479.5s-128.5 399 -128.5 631c0 233.333 42.833 445 128.5 635s203 351 352 483s318.833 232 509.5 300s389 102 595 102s404.5 -34.167 595.5 -102.5
s361 -168.166 510 -299.5c149 -131.333 266.333 -292.166 352 -482.499s128.5 -402.166 128.5 -635.499c0 -232 -42.833 -442.5 -128.5 -631.5s-202.834 -348.833 -351.5 -479.5c-148.667 -130.667 -318.834 -230 -510.5 -298c-191.667 -68 -390.167 -102 -595.5 -102z
M2720 1454c0 166.667 -28.002 320.333 -84.002 461s-134 262 -234 364s-215.833 180.5 -347.5 235.5s-270.5 82.5 -416.5 82.5c-197.333 0 -378.833 -48.167 -544.5 -144.5s-296.5 -231.5 -392.5 -405.5s-144 -371.667 -144 -593c0 -219.333 47.833 -415.333 143.5 -588
s226.667 -307 393 -403s347.833 -144 544.5 -144c144.667 0 282.834 27.333 414.501 82s247.834 132.667 348.501 234s179 222 235 362s84 292.333 84 457zM1393 1323v-683.998h-381v1638h622c233.333 0 407.833 -36.667 523.5 -110s173.5 -203 173.5 -389
c0 -146.667 -39.167 -252.834 -117.5 -318.501s-193.5 -102.834 -345.5 -111.501l422 -709h-381l-377 684h-139zM1393 1618l319 -0.000976562c76.667 0 132.667 13 168 39s53 73 53 141c0 68.667 -17.667 115.834 -53 141.501s-91.333 38.5 -168 38.5l-319 4v-364z" />
    <glyph glyph-name="Oslash" unicode="&#xaf;" horiz-adv-x="836" 
d="M758 0h-680v2916h680v-2916zM987 3133h-459v504h459v-504zM307 3133h-459v504h459v-504z" />
    <glyph glyph-name="infinity" unicode="&#xb0;" horiz-adv-x="1638" 
d="M819 2007c204.667 0 307 108 307 324c0 215.333 -102.333 323 -307 323s-307 -107.667 -307 -323c0 -216 102.333 -324 307 -324zM819 1745c-162.667 0 -301.004 57 -415.004 171s-171 252.333 -171 415c0 106.667 25.833 204.834 77.5 294.5
c51.667 89.667 122.334 160.5 212.001 212.5s188.5 78 296.5 78c80.667 0 156.834 -14.667 228.501 -44s134.334 -71 188.001 -125s95.334 -116.667 125.001 -188s44.5 -147.333 44.5 -228c0 -107.333 -25.833 -206 -77.5 -296s-122.5 -160.833 -212.5 -212.5
s-188.667 -77.5 -296 -77.5z" />
    <glyph glyph-name="plusminus" unicode="&#xb1;" horiz-adv-x="2458" 
d="M950 1729v483h557v-483h762v-558h-762v-421h-557v421h-762v558h762zM188 131v557h2081v-557h-2081z" />
    <glyph glyph-name="lessequal" unicode="&#xb2;" horiz-adv-x="836" 
d="M758 0h-680v2916h680v-2916z" />
    <glyph glyph-name="greaterequal" unicode="&#xb3;" horiz-adv-x="836" 
d="M741 0h-647v2343h647v-2343zM741 2503h-647v413h647v-413z" />
    <glyph glyph-name="mu" unicode="&#xb5;" horiz-adv-x="1745" 
d="M737 -29l-0.000976562 -494.999h-647v2867h647v-1626c0 -66.667 8.33301 -118.834 25 -156.501s52 -56.5 106 -56.5c93.333 0 140 71 140 213v1626h647v-2343h-647v291h-9c-41.333 -146 -128.666 -252.667 -261.999 -320z" />
    <glyph glyph-name="partialdiff" unicode="&#xb6;" horiz-adv-x="2540" 
d="M2286 2548l0.000976562 -3281h-517v3281h-348v-3281h-516v2220c-288 0 -510.167 61.5 -666.5 184.5s-234.5 294.833 -234.5 515.5c0 188 42.5 335.667 127.5 443s201.167 181.833 348.5 223.5s324.666 62.5 531.999 62.5h1523v-368h-249z" />
    <glyph glyph-name="product" unicode="&#xb8;" horiz-adv-x="1745" 
d="M1655 1098l-918.001 0.00195312v-475c0 -150.667 45 -226 135 -226c90.667 0 136 75.333 136 226v303h647v-344c0 -210.667 -70 -365.167 -210 -463.5s-331 -147.5 -573 -147.5c-142.667 0 -273.5 22.5 -392.5 67.5s-213.667 114.5 -284 208.5s-105.5 209.667 -105.5 347
v1118c0 211.333 67.333 374.166 202 488.499s328 171.5 580 171.5c148.667 0 281.334 -21 398.001 -63s210 -112.333 280 -211s105 -227.334 105 -386.001v-614zM1442 2662h-459v504h459v-504zM761.999 2662h-459v504h459v-504zM736.999 1487h271v319
c0 93.333 -45.333 140 -136 140c-90 0 -135 -46.667 -135 -140v-319z" />
    <glyph glyph-name="pi" unicode="&#xb9;" horiz-adv-x="1049" 
d="M434 2613v-725c0 -65.333 28.667 -98 86 -98c60 0 90 32.667 90 98v725c0 66 -30 99 -90 99c-57.333 0 -86 -33 -86 -99zM1032 2576v-671c0 -124.667 -48.667 -218 -146 -280s-219.333 -93 -366 -93c-92.667 0 -177.5 13.333 -254.5 40s-138.5 68 -184.5 124
s-69 125.667 -69 209v671c0 127.333 44.167 224.833 132.5 292.5s213.5 101.5 375.5 101.5c164.667 0 291.167 -33.833 379.5 -101.5s132.5 -165.167 132.5 -292.5z" />
    <glyph glyph-name="ordfeminine" unicode="&#xbb;" horiz-adv-x="1516" 
d="M836 406v589l307 308l-307 307v590l618 -623v-549zM61 406v589l308 308l-308 307v590l619 -623v-549z" />
    <glyph glyph-name="ordmasculine" unicode="&#xbc;" horiz-adv-x="836" 
d="M741 2343v-2396c0 -173.333 -37.5 -295.166 -112.5 -365.499s-199.833 -105.5 -374.5 -105.5h-451v426h86c55.333 0 97.333 6.66699 126 20s49 38.5 61 75.5s18 92.5 18 166.5v2179h647zM94 2916h647v-413h-647v413z" />
    <glyph glyph-name="Omega" unicode="&#xbd;" 
d="M1810 1872l-680.002 -0.000976562v409c0 150.667 -60 226 -180 226c-69.333 0 -116.666 -18 -141.999 -54s-38 -93.333 -38 -172c0 -106 32 -190.667 96 -254s190.833 -171.666 380.5 -324.999s331 -300.333 424 -441s139.5 -312.667 139.5 -516
c0 -272 -72.167 -473.667 -216.5 -605s-360.166 -197 -647.499 -197c-247.333 0 -451.833 50.5 -613.5 151.5s-242.5 267.5 -242.5 499.5v541h680v-504c0 -84 13.833 -141.833 41.5 -173.5s73.834 -47.5 138.501 -47.5c120 0 180 73.667 180 221
c0 145.333 -39.333 261.666 -118 348.999s-206.834 200.333 -384.501 339s-311.667 274.834 -402 408.501s-135.5 306.167 -135.5 517.5c0 486 291 729 873 729c254 0 458.667 -50.333 614 -151s233 -264.667 233 -492v-459z" />
    <glyph glyph-name="ae" unicode="&#xbe;" horiz-adv-x="1745" 
d="M1655 1516l-646.998 0.000976562v253c0 118 -45.333 177 -136 177c-90 0 -135 -59 -135 -177c0 -85.333 24.5 -146 73.5 -182s159.167 -102.167 330.5 -198.5s297.666 -195.333 378.999 -297s122 -238.834 122 -411.501c0 -232.667 -69.167 -409 -207.5 -529
s-342.166 -180 -611.499 -180c-222.667 0 -400.5 47 -533.5 141s-199.5 241 -199.5 441v373h647v-353c0 -117.333 45 -176 135 -176c90.667 0 136 58.667 136 176c0 122.667 -34.833 214 -104.5 274s-182.834 131.833 -339.501 215.5s-274.834 171.667 -354.501 264
s-119.5 223.5 -119.5 393.5c0 222.667 69.333 387 208 493s322 159 550 159c252 0 449.5 -49.667 592.5 -149s214.5 -245 214.5 -437v-270z" />
    <glyph glyph-name="oslash" unicode="&#xbf;" horiz-adv-x="836" 
d="M741 0h-647v2343h647v-2343zM987 2662h-459v504h459v-504zM307 2662h-459v504h459v-504z" />
    <glyph glyph-name="questiondown" unicode="&#xc0;" 
d="M532 2916h934l377 -2916h-676l-77 717h-369l-111 -717h-573zM795 1159h245l-118 1299h-9z" />
    <glyph glyph-name="exclamdown" unicode="&#xc1;" 
d="M1737 2916l-0.000976562 -442.001h-967v-684h250c140 0 270 -22.833 390 -68.5s216.667 -116.167 290 -211.5s110 -212.333 110 -351v-532c0 -237.333 -74.667 -401.166 -224 -491.499s-370.666 -135.5 -663.999 -135.5h-832v2916h1647zM769.999 417.999h107
c77.333 0 133.833 15.5 169.5 46.5s58.5 78.833 68.5 143.5s15 161 15 289c0 188 -14.167 314.167 -42.5 378.5s-98.5 96.5 -210.5 96.5h-107v-954z" />
    <glyph glyph-name="logicalnot" unicode="&#xc2;" 
d="M90 0l0.000976562 2916h688c242.667 0 432.334 -12 569.001 -36s248 -87 334 -189s129 -263 129 -483c0 -404 -161 -621.333 -483 -652v-28c136.667 0 240.167 -30.167 310.5 -90.5s116.666 -139.333 138.999 -237s33.5 -220.834 33.5 -369.501
c0 -259.333 -34.5 -447.833 -103.5 -565.5s-170.833 -191.334 -305.5 -221.001s-342.334 -44.5 -623.001 -44.5h-688zM770.001 1315l0.000976562 -896.998c112.667 0 195 19 247 57s83.833 88.167 95.5 150.5s17.5 152.833 17.5 271.5
c0 137.333 -9.83301 234.666 -29.5 291.999s-51.834 92.666 -96.501 105.999s-122.667 20 -234 20zM770.002 2499l-0.000976562 -765.997c56.667 1.33301 107.834 2.66602 153.501 3.99902s83.167 11.166 112.5 29.499s52.333 54.666 69 108.999s25 133.833 25 238.5
c0 102 -7 178.667 -21 230s-46.5 90 -97.5 116s-131.5 39 -241.5 39z" />
    <glyph glyph-name="radical" unicode="&#xc3;" horiz-adv-x="1516" 
d="M770 0h-680v2916h1409v-442h-729v-2474z" />
    <glyph glyph-name="florin" unicode="&#xc4;" horiz-adv-x="1970" 
d="M1970 -442h-627v442h-725v-442h-626v884c52 0 92.167 15.667 120.5 47s51.5 116.5 69.5 255.5s27 363.167 27 672.5v1499h1663v-2474h98v-884zM1192 442v2032h-361v-1057c0 -385.333 -16.333 -642 -49 -770s-60 -196.333 -82 -205h492z" />
    <glyph glyph-name="approxequal" unicode="&#xc5;" horiz-adv-x="1516" 
d="M1491 0h-1409v2916h1409v-442h-729v-639h704v-442h-704v-951h729v-442z" />
    <glyph glyph-name="Delta" unicode="&#xc6;" horiz-adv-x="2884" 
d="M1782 2916v-1323h8l401 1323h648l-426 -1286l430 -1630h-672l-381 1479h-8v-1479h-680v1479h-8l-381 -1479h-672l430 1630l-426 1286h647l402 -1323h8v1323h680z" />
    <glyph glyph-name="guillemotleft" unicode="&#xc7;" 
d="M94 1122h679.997v-491c0 -147.333 57.333 -221 172 -221c117.333 0 176 73.667 176 221v368c0 113.333 -25.833 185.5 -77.5 216.5s-133.5 46.5 -245.5 46.5h-189v467h221c194 0 291 86 291 258v340c0 50.667 -15.667 93.334 -47 128c-31.333 34.667 -74.333 52 -129 52
c-76 0 -123.667 -28.167 -143 -84.5s-29 -133.5 -29 -231.5v-323h-680v418c0 173.333 44.833 311.333 134.5 414s198.334 174 326.001 214s255.5 60 383.5 60c151.333 0 292.5 -21.667 423.5 -65s237.167 -113.833 318.5 -211.5s122 -222.834 122 -375.501v-184
c0 -195.333 -35.333 -339.333 -106 -432s-176 -154.667 -316 -186c-2.66699 0 -4 1.33301 -4 4v-25c142.667 -19.333 249.334 -67.666 320.001 -144.999s106 -205 106 -383v-324c0 -238 -80.167 -414.833 -240.5 -530.5s-368.166 -173.5 -623.499 -173.5
c-562.667 0 -844 226.667 -844 680v499z" />
    <glyph glyph-name="guillemotright" unicode="&#xc8;" horiz-adv-x="2048" 
d="M1958 0h-557v2388h-8l-439 -2388h-864v2916h557v-2072h8l369 2072h934v-2916z" />
    <glyph glyph-name="ellipsis" unicode="&#xc9;" horiz-adv-x="2048" 
d="M385 3609h229c26 -150.667 156 -226 390 -226c85.333 0 160.333 18.333 225 55s104.334 93.667 119.001 171h237c0 -120 -26.833 -221 -80.5 -303s-127.334 -142.833 -221.001 -182.5s-200.5 -59.5 -320.5 -59.5c-166.667 0 -304.667 49.167 -414 147.5
s-164 230.833 -164 397.5zM1958 0h-557v2388h-8l-439 -2388h-864v2916h557v-2072h8l369 2072h934v-2916z" />
    <glyph glyph-name="nonbreakingspace" unicode="&#xca;" 
d="M770 0h-680v2916h680v-1323h8l430 1323h647l-454 -1286l459 -1630h-672l-410 1479h-8v-1479z" />
    <glyph glyph-name="Agrave" unicode="&#xcb;" horiz-adv-x="1970" 
d="M-8 -57l-0.00195312 539.999c70 0 120.333 28.167 151 84.5s49.334 138.5 56.001 246.5s10 281.667 10 521v1581h1663v-2916h-680v2474h-361v-1139c0 -265.333 -5.83301 -472.333 -17.5 -621s-43.167 -282.167 -94.5 -400.5s-134.666 -209.666 -249.999 -273.999
s-274.333 -96.5 -477 -96.5z" />
    <glyph glyph-name="Atilde" unicode="&#xcc;" horiz-adv-x="2732" 
d="M631 2458v-2458h-545v2916h999l287 -2072h8l287 2072h979v-2916h-614v2458h-9l-393 -2458h-598l-393 2458h-8z" />
    <glyph glyph-name="Otilde" unicode="&#xcd;" 
d="M770 0h-680v2916h680v-1081h360v1081h680v-2916h-680v1393h-360v-1393z" />
    <glyph glyph-name="OE" unicode="&#xce;" 
d="M1810 2122l0.000976562 -1327c0 -568 -286.667 -852 -860 -852s-860 284 -860 852v1327c0 210.667 38.667 379.334 116 506c77.333 126.667 179.833 216 307.5 268s273.167 78 436.5 78c164 0 309.667 -26 437 -78s229.666 -141.333 306.999 -268s116 -295.334 116 -506z
M770.001 2277v-1638c0 -152.667 60 -229 180 -229s180 76.333 180 229v1638c0 153.333 -60 230 -180 230s-180 -76.667 -180 -230z" />
    <glyph glyph-name="oe" unicode="&#xcf;" 
d="M770 0h-680v2916h1720v-2916h-680v2474h-360v-2474z" />
    <glyph glyph-name="emdash" unicode="&#xd0;" 
d="M770 0h-679.999v2916h832c293.333 0 514.666 -45.167 663.999 -135.5s224 -253.833 224 -490.5v-533c0 -206 -76.833 -362.667 -230.5 -470s-340.167 -161 -559.5 -161h-250v-1126zM770.001 2499v-955h107c78 0 134.667 15.167 170 45.5s58 77.5 68 141.5s15 160 15 288
c0 128.667 -5 225.334 -15 290c-10 64.667 -32.833 112.5 -68.5 143.5s-92.167 46.5 -169.5 46.5h-107z" />
    <glyph glyph-name="endash" unicode="&#xd1;" 
d="M1135 1135h674.999v-385c0 -538 -288 -807 -864 -807c-570.667 0 -856 284 -856 852v1327c0 568 285.333 852 856 852c276.667 0 489.834 -56.333 639.501 -169s224.5 -316 224.5 -610v-319h-680v401c0 153.333 -61.333 230 -184 230c-117.333 0 -176 -76.667 -176 -230
v-1638c0 -152.667 58.667 -229 176 -229c122.667 0 184 76.333 184 229z" />
    <glyph glyph-name="quotedblleft" unicode="&#xd2;" horiz-adv-x="1667" 
d="M496 2474h-476v442h1631v-442h-475v-2474h-680v2474z" />
    <glyph glyph-name="quotedblright" unicode="&#xd3;" horiz-adv-x="1819" 
d="M418 0l139 582l-577 2334h663l250 -1650h8l250 1650h664l-717 -2916h-680z" />
    <glyph glyph-name="quoteleft" unicode="&#xd4;" horiz-adv-x="2884" 
d="M1102 2916h680v-409c209.333 0 377 -11.833 503 -35.5s227.333 -69 304 -136s132 -165.667 166 -296s51 -306.5 51 -528.5v-221c0 -202 -26 -365.667 -78 -491s-152.5 -221.5 -301.5 -288.5s-363.833 -100.5 -644.5 -100.5v-410h-680v410
c-281.333 0 -496.5 33.667 -645.5 101s-249.333 163.5 -301 288.5s-77.5 288.5 -77.5 490.5v221c0 222 17 398 51 528s89.333 228.667 166 296s178 112.833 304 136.5s293.667 35.5 503 35.5v409zM1782 2089l0.00195312 -1262c106.667 0 184.5 13.833 233.5 41.5
s79.667 67.834 92 120.501s18.5 134 18.5 244v381c0 117.333 -2.33301 203 -7 257s-16.834 97.167 -36.501 129.5s-52.334 55.166 -98.001 68.499s-113.167 20 -202.5 20zM1102 2089c-88 0 -154.833 -6.49902 -200.5 -19.499s-78.667 -36.333 -99 -70
s-32.833 -77 -37.5 -130s-7 -138.167 -7 -255.5v-381c0 -110 6.16699 -191.333 18.5 -244s43 -92.834 92 -120.501s126.833 -41.5 233.5 -41.5v1262z" />
    <glyph glyph-name="quoteright" unicode="&#xd5;" 
d="M905 1167l-254 -1167h-618l409 1565l-405 1351h741l234 -1159h8l229 1159h619l-406 -1446l406 -1470h-721l-234 1167h-8z" />
    <glyph glyph-name="divide" unicode="&#xd6;" 
d="M90 0v2916h680v-2474h352v2474h680v-2474h99v-884h-627v442h-1184z" />
    <glyph glyph-name="lozenge" unicode="&#xd7;" 
d="M90 1806l-0.000976562 1110h680v-1040c0 -95.333 45 -143 135 -143c79.333 0 154.333 34 225 102v1081h680v-2916h-680v1393c-55.333 -53.333 -124.666 -95.333 -207.999 -126s-171 -46 -263 -46c-159.333 0 -294 48 -404 144s-165 243 -165 441z" />
    <glyph glyph-name="ydieresis" unicode="&#xd8;" horiz-adv-x="2884" 
d="M90 0v2916h680v-2474h332v2474h680v-2474h332v2474h679v-2916h-2703z" />
    <glyph glyph-name="Ydieresis" unicode="&#xd9;" horiz-adv-x="2884" 
d="M90 0v2916h680v-2474h328v2474h680v-2474h327v2474h680v-2474h99v-884h-627v442h-2167z" />
    <glyph glyph-name="fraction" unicode="&#xda;" horiz-adv-x="2048" 
d="M242 2474l-242 -0.000976562v442h922v-1126h249c141.333 0 271.833 -22.833 391.5 -68.5s216.167 -116.167 289.5 -211.5s110 -212.333 110 -351v-532c0 -237.333 -74.5 -401.166 -223.5 -491.499s-370.833 -135.5 -665.5 -135.5h-831v2474zM922 417.999h106
c78 0 134.833 15.5 170.5 46.5s58.5 78.833 68.5 143.5s15 161 15 289c0 188 -14.167 314.167 -42.5 378.5s-98.833 96.5 -211.5 96.5h-106v-954z" />
    <glyph glyph-name="currency" unicode="&#xdb;" horiz-adv-x="2732" 
d="M770 2916l-0.000976562 -1126h250c140 0 270 -22.833 390 -68.5s216.667 -116.167 290 -211.5s110 -212.333 110 -351v-532c0 -237.333 -74.667 -401.166 -224 -491.499s-370.666 -135.5 -663.999 -135.5h-832v2916h680zM2642 -0.000976562h-680v2916h680v-2916z
M769.999 417.999h107c77.333 0 133.833 15.5 169.5 46.5s58.5 78.833 68.5 143.5s15 161 15 289c0 188 -14.167 314.167 -42.5 378.5s-98.5 96.5 -210.5 96.5h-107v-954z" />
    <glyph glyph-name="guilsinglleft" unicode="&#xdc;" 
d="M770 2916l-0.000976562 -1126h250c140 0 270 -22.833 390 -68.5s216.667 -116.167 290 -211.5s110 -212.333 110 -351v-532c0 -237.333 -74.667 -401.166 -224 -491.499s-370.666 -135.5 -663.999 -135.5h-832v2916h680zM769.999 417.999h107
c77.333 0 133.833 15.5 169.5 46.5s58.5 78.833 68.5 143.5s15 161 15 289c0 188 -14.167 314.167 -42.5 378.5s-98.5 96.5 -210.5 96.5h-107v-954z" />
    <glyph glyph-name="guilsinglright" unicode="&#xdd;" 
d="M1130 1729v548c0 153.333 -58.667 230 -176 230c-122.667 0 -184 -76.667 -184 -230v-409h-680v327c0 200.667 36 358.334 108 473c72 114.667 171 194.334 297 239c126 44.667 279 67 459 67c570.667 0 856 -284 856 -852v-1327c0 -568 -285.333 -852 -856 -852
c-576 0 -864 269 -864 807v372h680v-483c0 -152.667 61.333 -229 184 -229c117.333 0 176 76.333 176 229v623h-520v467h520z" />
    <glyph glyph-name="fi" unicode="&#xde;" horiz-adv-x="2884" 
d="M1073 1393h-303v-1393h-680v2916h680v-1081h303v287c0 210.667 38.667 379.334 116 506c77.333 126.667 179.833 216 307.5 268s273.167 78 436.5 78c164 0 309.667 -26 437 -78s229.666 -141.333 307 -268c77.333 -126.667 116 -295.334 116 -506v-1327
c0 -568 -286.667 -852 -860 -852s-860 284 -860 852v598zM1753 2277v-1638c0 -152.667 60 -229 180 -229c120.667 0 181 76.333 181 229v1638c0 153.333 -60.333 230 -181 230c-120 0 -180 -76.667 -180 -230z" />
    <glyph glyph-name="fl" unicode="&#xdf;" 
d="M1139 0l-0.000976562 1331h-111c-67.333 0 -125.166 -27 -173.499 -81s-72.5 -129.333 -72.5 -226v-618c0 -176 -32.667 -311.333 -98 -406h-684c68 98.667 102 234 102 406v610c0 199.333 43.333 339.666 130 420.999s217 124 391 128v8
c-347.333 57.333 -521 278.333 -521 663c0 197.333 39.333 345 118 443s189.5 162 332.5 192s337.167 45 582.5 45h684v-2916h-680zM1139 2499c-148.667 0 -245.333 -26.333 -290 -79s-67 -150.667 -67 -294c0 -100 8.66699 -175.833 26 -227.5s51.333 -89.5 102 -113.5
s127 -36 229 -36v750z" />
    <glyph glyph-name="daggerdbl" unicode="&#xe0;" horiz-adv-x="1745" 
d="M1008 0l-0.000976562 273.998h-9c-43.333 -95.333 -100.166 -169.666 -170.499 -222.999s-164.833 -80 -283.5 -80c-142.667 0 -254.167 41.833 -334.5 125.5s-120.5 201.834 -120.5 354.501v348c0 137.333 40.167 246.333 120.5 327s198.333 159 354 235
s268.5 140 338.5 192s105 125.667 105 221c0 114.667 -45.333 172 -136 172c-90 0 -135 -57.333 -135 -172v-258h-647v217c0 218.667 75.5 379.834 226.5 483.501s336.167 155.5 555.5 155.5c220 0 405.5 -51.833 556.5 -155.5s226.5 -264.834 226.5 -483.501v-1733h-647z
M736.999 855.998v-253.999c0 -38.667 11.5 -68.834 34.5 -90.501s51.167 -32.5 84.5 -32.5c64 0 105.333 21.5 124 64.5s28 121.167 28 234.5v406l-132 -89c-42.667 -28.667 -76.5 -61.5 -101.5 -98.5s-37.5 -83.833 -37.5 -140.5z" />
    <glyph glyph-name="periodcentered" unicode="&#xe1;" horiz-adv-x="1745" 
d="M90 2023c0 142.667 6.16602 268.5 18.499 377.5s39.833 214 82.5 315s108.334 186.667 197.001 257s205 115.833 349 136.5c175.333 28 299.833 52.333 373.5 73s110.5 52.334 110.5 95h434c0 -226.667 -52.5 -391 -157.5 -493s-272.5 -168.333 -502.5 -199
c-158 -21.333 -267.833 -77.5 -329.5 -168.5s-92.5 -222.167 -92.5 -393.5h9c28.667 106 89 190.667 181 254s198 95 318 95c108.667 0 206.667 -22.667 294 -68s155.833 -107.666 205.5 -187c49.667 -79.333 74.5 -168 74.5 -266v-1257
c0 -137.333 -35.167 -253 -105.5 -347s-165 -163.5 -284 -208.5s-250.167 -67.5 -393.5 -67.5c-142.667 0 -273.5 22.5 -392.5 67.5s-213.667 114.5 -284 208.5s-105.5 209.667 -105.5 347v1429zM736.999 1782v-1221c0 -109.333 45 -164 135 -164
c90.667 0 136 54.667 136 164v1221c0 109.333 -45.333 164 -136 164c-90 0 -135 -54.667 -135 -164z" />
    <glyph glyph-name="quotesinglbase" unicode="&#xe2;" horiz-adv-x="1729" 
d="M90 0l-0.00195312 2343h647c212.667 0 379.834 -9.66699 501.501 -29s221.5 -70.333 299.5 -153s117 -211.667 117 -387c0 -184 -31.5 -313.667 -94.5 -389s-159.833 -126 -290.5 -152v-16c104.667 -12 184.334 -36.667 239.001 -74s92.667 -92.666 114 -165.999
s32 -176.333 32 -309c0 -156.667 -17.833 -280.5 -53.5 -371.5s-90 -157.667 -163 -200s-162 -69 -267 -80s-249.833 -16.5 -434.5 -16.5h-647zM736.998 1024v-618c79.333 1.33301 137.333 9.16602 174 23.499s62 43 76 86s21 111.5 21 205.5
c0 90.667 -7 156.834 -21 198.501s-39.333 69.5 -76 83.5s-94.667 21 -174 21zM736.998 1937v-528.001c84 0 144.167 6.33301 180.5 19s60.5 37 72.5 73s18 95.333 18 178c0 94.667 -16.333 161.334 -49 200.001s-106.667 58 -222 58z" />
    <glyph glyph-name="quotedblbase" unicode="&#xe3;" horiz-adv-x="1364" 
d="M1323 1917h-586v-1917h-647v2343h1233v-426z" />
    <glyph glyph-name="perthousand" unicode="&#xe4;" horiz-adv-x="1819" 
d="M1823 -442l-594 -0.00195312v442h-639v-442h-594v868c44.667 0 81.167 15.333 109.5 46s51.333 104.834 69 222.501s26.5 299.834 26.5 546.501v1102h1523v-1917h99v-868zM1077 425.998v1491h-270v-676c0 -339.333 -15.833 -560 -47.5 -662s-58.167 -153 -79.5 -153h397z
" />
    <glyph glyph-name="Acircumflex" unicode="&#xe5;" horiz-adv-x="1745" 
d="M1655 1098l-918.001 0.00195312v-475c0 -150.667 45 -226 135 -226c90.667 0 136 75.333 136 226v303h647v-344c0 -210.667 -70 -365.167 -210 -463.5s-331 -147.5 -573 -147.5c-142.667 0 -273.5 22.5 -392.5 67.5s-213.667 114.5 -284 208.5s-105.5 209.667 -105.5 347
v1118c0 211.333 67.333 374.166 202 488.499s328 171.5 580 171.5c148.667 0 281.334 -21 398.001 -63s210 -112.333 280 -211s105 -227.334 105 -386.001v-614zM736.999 1487h271v319c0 93.333 -45.333 140 -136 140c-90 0 -135 -46.667 -135 -140v-319z" />
    <glyph glyph-name="Ecircumflex" unicode="&#xe6;" horiz-adv-x="2580" 
d="M1614 2343v-1069h8l291 1069h627l-332 -1049l364 -1294h-659l-291 1225h-8v-1225h-647v1225h-9l-290 -1225h-660l365 1294l-332 1049h627l290 -1069h9v1069h647z" />
    <glyph glyph-name="Aacute" unicode="&#xe7;" horiz-adv-x="1745" 
d="M1655 623c0 -219.333 -67.499 -382.832 -202.499 -490.499s-326.833 -161.5 -575.5 -161.5c-243.333 0 -435.333 49.167 -576 147.5s-211 252.833 -211 463.5v344h647v-365c0 -109.333 45 -164 135 -164c90.667 0 136 54.667 136 164v254c0 92.667 -18 150.667 -54 174
s-98.667 35 -188 35h-197v385h189c58 0 103.333 2.83301 136 8.5s59.834 20.167 81.501 43.5s32.5 59.333 32.5 108v213c0 109.333 -45.333 164 -136 164c-90 0 -135 -54.667 -135 -164v-266h-647v196c0 158.667 35 287.334 105 386.001s163.667 169 281 211s251 63 401 63
c161.333 0 300.666 -26.5 417.999 -79.5s206.666 -129.167 267.999 -228.5s92 -215.333 92 -348c0 -152 -32.5 -264.333 -97.5 -337s-160.833 -121.334 -287.5 -146.001v-16c127.333 -14.667 223.333 -54.334 288 -119.001s97 -167 97 -307v-168z" />
    <glyph glyph-name="Edieresis" unicode="&#xe8;" horiz-adv-x="1864" 
d="M1790 0h-512v1851h-8l-418 -1851h-762v2343h512v-1585h8l357 1585h823v-2343z" />
    <glyph glyph-name="Egrave" unicode="&#xe9;" horiz-adv-x="1864" 
d="M1790 0h-512v1851h-8l-418 -1851h-762v2343h512v-1585h8l357 1585h823v-2343zM332 3166h228.999c26 -150 155.667 -225 389 -225c87.333 0 162.833 18.167 226.5 54.5s102.834 93.166 117.501 170.5h238c0 -180 -57.5 -315.833 -172.5 -407.5
s-265.167 -137.5 -450.5 -137.5c-166.667 0 -304.5 49.167 -413.5 147.5s-163.5 230.833 -163.5 397.5z" />
    <glyph glyph-name="Iacute" unicode="&#xea;" horiz-adv-x="1745" 
d="M737 0h-647v2343h647v-1069h8l332 1069h627l-373 -1049l406 -1294h-660l-332 1225h-8v-1225z" />
    <glyph glyph-name="Icircumflex" unicode="&#xeb;" horiz-adv-x="1819" 
d="M0 -29v504c60 0 104.667 21.667 134 65s48.5 111.833 57.5 205.5s13.5 235.5 13.5 425.5v1172h1524v-2343h-648v1917h-270v-746c0 -206.667 -6.33301 -375 -19 -505s-44.167 -248 -94.5 -354s-131.5 -189.333 -243.5 -250s-263.333 -91 -454 -91z" />
    <glyph glyph-name="Idieresis" unicode="&#xec;" horiz-adv-x="2580" 
d="M614 1892v-1892h-524v2343h938l262 -1552h8l267 1552h921v-2343h-590v1892h-4l-364 -1892h-545l-360 1892h-9z" />
    <glyph glyph-name="Igrave" unicode="&#xed;" horiz-adv-x="1745" 
d="M1655 0h-647v1008h-271v-1008h-647v2343h647v-909h271v909h647v-2343z" />
    <glyph glyph-name="Oacute" unicode="&#xee;" horiz-adv-x="1745" 
d="M1655 1712l-0.000976562 -1118c0 -137.333 -35.167 -253 -105.5 -347s-165 -163.5 -284 -208.5s-250.167 -67.5 -393.5 -67.5c-142.667 0 -273.5 22.5 -392.5 67.5s-213.667 114.5 -284 208.5s-105.5 209.667 -105.5 347v1118c0 211.333 67.333 374.166 202 488.499
s328 171.5 580 171.5c252.667 0 446.334 -57.167 581.001 -171.5s202 -277.166 202 -488.499zM736.999 1782v-1221c0 -109.333 45 -164 135 -164c90.667 0 136 54.667 136 164v1221c0 109.333 -45.333 164 -136 164c-90 0 -135 -54.667 -135 -164z" />
    <glyph glyph-name="Ocircumflex" unicode="&#xef;" horiz-adv-x="1745" 
d="M1655 0h-647v1917h-271v-1917h-647v2343h1565v-2343z" />
    <glyph glyph-name="apple" unicode="&#xf0;" horiz-adv-x="1745" 
d="M737 2343l0.00292969 -307h8c30 224 179 336 447 336c111.333 0 201.666 -28 270.999 -84s118.666 -129.167 147.999 -219.5s44 -188.5 44 -294.5v-1295c0 -154 -36.333 -277.167 -109 -369.5s-186.667 -138.5 -342 -138.5c-118 0 -216.833 29.5 -296.5 88.5
s-133.834 141.5 -162.501 247.5h-8v-831h-647v2867h647zM737.003 1679v-1015c0 -48.667 12.5 -87.5 37.5 -116.5s57.5 -43.5 97.5 -43.5c40.667 0 73.5 14.167 98.5 42.5s37.5 67.5 37.5 117.5v1015c0 51.333 -12.5 90.833 -37.5 118.5s-57.833 41.5 -98.5 41.5
c-40 0 -72.5 -14.167 -97.5 -42.5s-37.5 -67.5 -37.5 -117.5z" />
    <glyph glyph-name="Ograve" unicode="&#xf1;" horiz-adv-x="1745" 
d="M1008 1516l-0.000976562 266.001c0 109.333 -45.333 164 -136 164c-90 0 -135 -54.667 -135 -164v-1221c0 -109.333 45 -164 135 -164c90.667 0 136 54.667 136 164v365h647v-344c0 -210.667 -70.333 -365.167 -211 -463.5s-332.667 -147.5 -576 -147.5
c-518.667 0 -778 217.333 -778 652v1093c0 127.333 30.833 240.833 92.5 340.5s151.334 177.167 269.001 232.5s256.5 83 416.5 83c150 0 283.667 -21 401 -63s211 -112.333 281 -211s105 -227.334 105 -386.001v-196h-647z" />
    <glyph glyph-name="Uacute" unicode="&#xf2;" horiz-adv-x="1364" 
d="M1335 1917h-331v-1917h-648v1917h-327v426h1306v-426z" />
    <glyph glyph-name="Ucircumflex" unicode="&#xf3;" horiz-adv-x="1667" 
d="M12 2343h655.998l217 -1618h8l217 1618h545l-525 -2470c-25.333 -130.667 -83.166 -229.5 -173.499 -296.5s-207.166 -100.5 -350.499 -100.5h-520v426h336c76.667 0 115 21.667 115 65c0 10.667 -5.66699 45 -17 103z" />
    <glyph glyph-name="Ugrave" unicode="&#xf4;" horiz-adv-x="2580" 
d="M963 2916l634.002 0.000976562v-893h9c62 232.667 206.667 349 434 349c155.333 0 269.166 -47 341.5 -141c72.333 -94 108.5 -220.667 108.5 -380v-1294c0 -164.667 -36.167 -303.5 -108.5 -416.5s-190.166 -169.5 -353.5 -169.5c-252 0 -392.667 108 -422 324h-9v-819
h-634v831h-9c-60 -224 -197.667 -336 -413 -336c-155.333 0 -269.333 46.333 -342 139s-109 215.667 -109 369v1295c0 169.333 36.167 311.333 108.5 425.999c72.333 114.667 190.5 172 354.5 172c121.333 0 214.666 -26 279.999 -78s105.666 -138 120.999 -258h9v880z
M1597 1679v-1015c0 -48.667 12.5 -87.5 37.5 -116.5s57.833 -43.5 98.5 -43.5c78.667 0 118 53.333 118 160v1015c0 106.667 -39.333 160 -118 160c-40.667 0 -73.5 -14.167 -98.5 -42.5s-37.5 -67.5 -37.5 -117.5zM729.002 1679v-1015c0 -106.667 39.667 -160 119 -160
c76.667 0 115 53.333 115 160v1015c0 106.667 -38.333 160 -115 160c-79.333 0 -119 -53.333 -119 -160z" />
    <glyph glyph-name="dotlessi" unicode="&#xf5;" horiz-adv-x="1745" 
d="M815 995l-225 -995h-574l394 1221l-369 1122h668l200 -905h9l200 905h578l-381 -1122l414 -1221h-680l-226 995h-8z" />
    <glyph glyph-name="circumflex" unicode="&#xf6;" horiz-adv-x="1745" 
d="M90 0v2343h647v-1917h267v1917h647v-1917h98v-868h-594v442h-1065z" />
    <glyph glyph-name="tilde" unicode="&#xf7;" horiz-adv-x="1745" 
d="M1655 0h-647.002v1008c-47.333 -43.333 -115.166 -80.833 -203.499 -112.5s-176.166 -47.5 -263.499 -47.5c-300.667 0 -451 195.333 -451 586v909h647v-909c0 -66 33 -99 99 -99c72.667 0 130 33 172 99v909h647v-2343z" />
    <glyph glyph-name="macron" unicode="&#xf8;" horiz-adv-x="2580" 
d="M90 0v2343h647v-1917h230v1917h647v-1917h229v1917h647v-2343h-2400z" />
    <glyph glyph-name="breve" unicode="&#xf9;" horiz-adv-x="2580" 
d="M90 0v2343h647v-1917h226v1917h647v-1917h225v1917h647v-1917h98v-868h-593v442h-1897z" />
    <glyph glyph-name="dotaccent" unicode="&#xfa;" 
d="M246 1917h-246.002v426h893v-868c202.667 0 359.834 -7.5 471.501 -22.5s200.334 -46.333 266.001 -94s112 -119.5 139 -215.5s40.5 -231.333 40.5 -406c0 -166 -13.667 -296.5 -41 -391.5s-73.833 -167.333 -139.5 -217s-155.5 -83.5 -269.5 -101.5
s-269.667 -27 -467 -27h-647v1917zM892.998 1069l0.000976562 -662.999c80.667 0 139.5 7.83301 176.5 23.5s61.833 46 74.5 91s19 117.167 19 216.5c0 96 -7.5 167.167 -22.5 213.5s-40.833 77.666 -77.5 93.999s-93.334 24.5 -170.001 24.5z" />
    <glyph glyph-name="ring" unicode="&#xfb;" horiz-adv-x="2580" 
d="M1655 737c0 -166 -13.667 -296.5 -41 -391.5s-74 -167.333 -140 -217s-156 -83.5 -270 -101.5s-269.667 -27 -467 -27h-647v2343h647l-4 -868c202.667 0 360 -7.33301 472 -22s201.167 -46 267.5 -94s113.333 -120 141 -216s41.5 -231.333 41.5 -406zM2490 0h-647v2343
h647v-2343zM737 1069v-662.999c81.333 0 140.5 7.83301 177.5 23.5s61.833 46 74.5 91s19 117.167 19 216.5c0 96 -7.5 167.167 -22.5 213.5s-41 77.666 -78 93.999s-93.833 24.5 -170.5 24.5z" />
    <glyph glyph-name="cedilla" unicode="&#xfc;" horiz-adv-x="1729" 
d="M1655 737c0 -166 -13.667 -296.5 -41 -391.5s-74 -167.333 -140 -217s-156 -83.5 -270 -101.5s-269.667 -27 -467 -27h-647v2343h647l-4 -868c202.667 0 360 -7.33301 472 -22s201.167 -46 267.5 -94s113.333 -120 141 -216s41.5 -231.333 41.5 -406zM737 1069v-662.999
c81.333 0 140.5 7.83301 177.5 23.5s61.833 46 74.5 91s19 117.167 19 216.5c0 96 -7.5 167.167 -22.5 213.5s-41 77.666 -78 93.999s-93.833 24.5 -170.5 24.5z" />
    <glyph glyph-name="hungarumlaut" unicode="&#xfd;" horiz-adv-x="1745" 
d="M1008 1417l-0.000976562 364.999c0 109.333 -45.333 164 -136 164c-90 0 -135 -54.667 -135 -164v-266h-647v196c0 158.667 35 287.334 105 386.001s163.667 169 281 211s251 63 401 63c160 0 298.833 -27.667 416.5 -83s207.334 -132.833 269.001 -232.5
s92.5 -213.167 92.5 -340.5v-1093c0 -219.333 -67.5 -382.833 -202.5 -490.5s-326.833 -161.5 -575.5 -161.5c-243.333 0 -435.333 49.167 -576 147.5s-211 252.833 -211 463.5v344h647v-365c0 -109.333 45 -164 135 -164c90.667 0 136 54.667 136 164v459h-439v397h439z
" />
    <glyph glyph-name="ogonek" unicode="&#xfe;" horiz-adv-x="2580" 
d="M950 1008l-213.001 0.000976562v-1008h-647v2343h647v-909h213v278c0 212 65.667 375 197 489s322.333 171 573 171c252 0 443.333 -56.833 574 -170.5s196 -276.834 196 -489.501v-1118c0 -138.667 -34.333 -254.667 -103 -348s-161.167 -162.5 -277.5 -207.5
s-246.166 -67.5 -389.499 -67.5c-222.667 0 -406.667 52.333 -552 157s-218 260 -218 466v414zM1597 1782v-1221c0 -109.333 41 -164 123 -164s123 54.667 123 164v1221c0 109.333 -41 164 -123 164s-123 -54.667 -123 -164z" />
    <glyph glyph-name="caron" unicode="&#xff;" horiz-adv-x="1745" 
d="M1008 0v1024c-103.333 0 -173.666 -15.333 -210.999 -46s-56 -96 -56 -196v-454c0 -142.667 -30 -252 -90 -328h-651c62.667 79.333 94 188.666 94 327.999v467c0 120 28.167 215 84.5 285s155.166 117 296.499 141v8c-146.667 32.667 -246.834 90 -300.501 172
s-80.5 214.333 -80.5 397c0 120 20.833 216.667 62.5 290s101.834 128.333 180.501 165s172 60.834 280 72.5c108 11.667 246.333 17.5 415 17.5h623v-2343h-647zM1008 1942c-110.667 0 -183.498 -15.333 -218.498 -46s-52.5 -101.667 -52.5 -213
c0 -82 5.16699 -141 15.5 -177s33.666 -61.167 69.999 -75.5s98.166 -21.5 185.499 -21.5v533z" />
    <glyph glyph-name="ntilde" unicode="&#x2013;" horiz-adv-x="2048" 
d="M0 1532h2048v-459h-2048v459z" />
    <glyph glyph-name="oacute" unicode="&#x2014;" horiz-adv-x="4096" 
d="M4096 1073h-4096v459h4096v-459z" />
    <glyph glyph-name="edieresis" unicode="&#x2018;" horiz-adv-x="836" 
d="M49 2916h602l135 -1028h-413z" />
    <glyph glyph-name="iacute" unicode="&#x2019;" horiz-adv-x="836" 
d="M184 2916h602l-323 -1028h-414z" />
    <glyph glyph-name="Ccedilla" unicode="&#x201a;" horiz-adv-x="836" 
d="M184 639h602l-323 -1028h-414z" />
    <glyph glyph-name="igrave" unicode="&#x201c;" horiz-adv-x="1745" 
d="M971 2916h602l135 -1028h-414zM135 2916h602l135 -1028h-413z" />
    <glyph glyph-name="icircumflex" unicode="&#x201d;" horiz-adv-x="1745" 
d="M1008 2916h602l-324 -1028h-414zM172 2916h602l-323 -1028h-414z" />
    <glyph glyph-name="Ntilde" unicode="&#x201e;" horiz-adv-x="1745" 
d="M1008 639h602l-324 -1028h-414zM172 639h602l-323 -1028h-414z" />
    <glyph glyph-name="Udieresis" unicode="&#x2020;" horiz-adv-x="1745" 
d="M598 1618h-516v491h516v807h553v-807h512v-491h-512v-1880h-553v1880z" />
    <glyph glyph-name="aacute" unicode="&#x2021;" horiz-adv-x="1745" 
d="M598 479h-516v492h516v704h-516v492h516v749h553v-749h512v-492h-512v-704h512v-492h-512v-741h-553v741z" />
    <glyph glyph-name="idieresis" unicode="&#x2022;" horiz-adv-x="2048" 
d="M1753 1458c0 -131.333 -32.498 -253.332 -97.498 -365.999s-153.667 -201.334 -266 -266.001s-234.166 -97 -365.499 -97c-132.667 0 -254.834 32.167 -366.501 96.5s-200 152.666 -265 264.999s-97.5 234.833 -97.5 367.5s32.167 255 96.5 367
s152.666 200.333 264.999 265s234.833 97 367.5 97c131.333 0 253.166 -32.5 365.499 -97.5s201 -153.667 266 -266s97.5 -234.166 97.5 -365.499z" />
    <glyph glyph-name="Odieresis" unicode="&#x2026;" horiz-adv-x="4096" 
d="M999 0h-634v688h634v-688zM2363 0h-634v688h634v-688zM3727 0h-635v688h635v-688z" />
    <glyph glyph-name="acircumflex" unicode="&#x2030;" horiz-adv-x="3109" 
d="M307 -57l1196 3031h254l-1192 -3031h-258zM422 2560v-684c0 -68 28.667 -102 86 -102c28 0 50 9.5 66 28.5s24 43.5 24 73.5v684c0 30 -8 54.5 -24 73.5s-38 28.5 -66 28.5c-26 0 -46.833 -9.66699 -62.5 -29s-23.5 -43.666 -23.5 -73zM57 1892l-0.000976562 652
c0 78 17.333 145 52 201s85.834 98.5 153.501 127.5s149.5 43.5 245.5 43.5c95.333 0 177.333 -14.5 246 -43.5s120.667 -71.333 156 -127s53 -122.834 53 -201.5v-652c0 -118 -39.667 -209.5 -119 -274.5s-191.333 -97.5 -336 -97.5c-144 0 -255.167 32.5 -333.5 97.5
s-117.5 156.5 -117.5 274.5zM1475 1040v-684c0 -68 28.667 -102 86 -102c28 0 50 9.5 66 28.5s24 43.5 24 73.5v684c0 30.667 -8 55.5 -24 74.5s-38 28.5 -66 28.5c-57.333 0 -86 -34.333 -86 -103zM1110 373v651c0 78.667 17.333 146 52 202s85.834 98.5 153.501 127.5
s149.5 43.5 245.5 43.5c95.333 0 177.166 -14.5 245.499 -43.5s120.166 -71.333 155.499 -127s53 -123.167 53 -202.5v-651c0 -79.333 -17.667 -146.833 -53 -202.5s-87.166 -98 -155.499 -127s-150.166 -43.5 -245.499 -43.5c-96 0 -177.833 14.5 -245.5 43.5
s-118.834 71.5 -153.501 127.5s-52 123.333 -52 202zM2511 1040v-684c0 -68 28.667 -102 86 -102c28 0 50 9.5 66 28.5s24 43.5 24 73.5v684c0 30.667 -8 55.5 -24 74.5s-38 28.5 -66 28.5c-57.333 0 -86 -34.333 -86 -103zM2146 373l0.000976562 651
c0 78.667 17.333 146 52 202s85.834 98.5 153.5 127.5c67.667 29 149.5 43.5 245.5 43.5c95.333 0 177.333 -14.5 246 -43.5s120.667 -71.333 156 -127s53 -123.167 53 -202.5v-651c0 -79.333 -17.667 -146.833 -53 -202.5s-87.333 -98 -156 -127s-150.667 -43.5 -246 -43.5
c-96 0 -177.833 14.5 -245.5 43.5s-118.834 71.5 -153.501 127.5s-52 123.333 -52 202z" />
    <glyph glyph-name="atilde" unicode="&#x2039;" horiz-adv-x="836" 
d="M774 406l-618 622v549l618 623v-590l-307 -307l307 -308v-589z" />
    <glyph glyph-name="otilde" unicode="&#x203a;" horiz-adv-x="836" 
d="M61 406v589l308 308l-308 307v590l619 -623v-549z" />
    <glyph glyph-name="ocircumflex" unicode="&#x2122;" horiz-adv-x="4096" 
d="M1556 2916v-368h-458v-1319h-492v1319h-459v368h1409zM2580 2916l365 -979l365 979h639v-1687h-443v1106h-8l-373 -1106h-360l-373 1106h-8v-1106h-442v1687h638z" />
    <glyph glyph-name="summation" unicode="&#x2219;" horiz-adv-x="950" 
d="M475 1516c94.667 0 175 -33.833 241 -101.5s99 -148.834 99 -243.501c0 -92 -33.667 -170.833 -101 -236.5s-147 -98.5 -239 -98.5c-94 0 -174.167 32.333 -240.5 97s-99.5 144 -99.5 238c0 96.667 32.667 178.334 98 245.001s146 100 242 100z" />
    <glyph glyph-name=".null" horiz-adv-x="0" 
 />
    <glyph glyph-name="nonmarkingreturn" horiz-adv-x="0" 
 />
    </font>
</defs>
</svg>
